<?xml version="1.0" standalone="no"?>
<!DOCTYPE svg PUBLIC "-//W3C//DTD SVG 1.1//EN" "http://www.w3.org/Graphics/SVG/1.1/DTD/svg11.dtd" >
<svg xmlns="http://www.w3.org/2000/svg">
<metadata></metadata>
<defs>
<font id="DBMomentXThinThin" horiz-adv-x="0" >
<font-face units-per-em="2048" ascent="1638" descent="-410" />
<missing-glyph horiz-adv-x="399" />
<glyph unicode="&#x2e;&#x2e;&#x2e;" horiz-adv-x="1012" d="M132 54q0 40 39 58q11 5 25 5q40 0 57 -39q5 -11 5 -24q0 -42 -38 -58q-12 -5 -24 -5q-42 0 -59 39q-5 11 -5 24zM443 54q0 41 39 58q11 5 24 5q41 0 58 -39q5 -11 5 -24q0 -41 -39 -58q-11 -5 -24 -5q-41 0 -58 39q-5 11 -5 24zM754 54q0 42 38 58q12 5 24 5 q42 0 59 -39q5 -11 5 -24q0 -40 -39 -58q-11 -5 -25 -5q-40 0 -57 39q-5 11 -5 24z" />
<glyph unicode="&#xe4f;&#x22;" horiz-adv-x="830" d="M60 390q0 -148 104 -252t252 -104q144 0 251 104q105 102 105 252q0 146 -105 251t-251 105q-201 0 -308 -177q-48 -80 -48 -179zM120 390q0 121 86 208q86 88 210 88q121 0 208.5 -87.5t87.5 -208.5q0 -124 -88 -210q-87 -86 -208 -86q-124 0 -210 86t-86 210zM244 390 q0 -70 51 -121t121 -51q68 0 120 51q50 48 50 121q0 71 -49.5 120.5t-120.5 49.5q-110 0 -158 -104q-14 -30 -14 -66zM279 814v314l62 12v-326h-62zM302 390q0 46 24 70q42 42 90 42q47 0 71 -24q41 -41 41 -88q0 -48 -24 -72q-42 -42 -88 -42q-47 0 -72 24q-42 43 -42 90z M494 814v314l62 12v-326h-62z" />
<glyph />
<glyph horiz-adv-x="2048" />
<glyph unicode="&#xd;" horiz-adv-x="452" />
<glyph unicode=" "  horiz-adv-x="399" />
<glyph unicode="&#x09;" horiz-adv-x="399" />
<glyph unicode="&#xa0;" horiz-adv-x="399" />
<glyph unicode="!" horiz-adv-x="570" d="M228 46q0 -37 34 -52q10 -5 22 -5q36 0 53 35q5 10 5 22q0 37 -36 52q-10 5 -22 5q-38 0 -52 -35q-4 -10 -4 -22zM246 1018l80 12l-19 -828h-45z" />
<glyph unicode="&#x22;" horiz-adv-x="770" d="M246 691v363h63v-350zM461 691v363h63v-350z" />
<glyph unicode="#" horiz-adv-x="893" d="M50 329l8 49h172l42 299h-173l9 49h171l46 324h59l-46 -324h270l46 324h60l-46 -324h174l-10 -49h-172l-42 -299h175l-10 -49h-172l-47 -329h-58l46 329h-270l-47 -329h-59l46 329h-172zM288 378h271l43 299h-271z" />
<glyph unicode="$" horiz-adv-x="827" d="M86 75l32 49q71 -62 188 -84q36 -6 71 -6h5v476q-37 15 -62.5 23.5t-67 28.5t-75.5 48q-77 63 -77 151q0 116 80 191q75 72 202 80v128l65 17v-146q147 -9 242 -91l-33 -40q-86 71 -209 80l-1 -420l58 -22q158 -52 206 -174q17 -42 17 -97t-21.5 -104t-59.5 -85 q-79 -75 -199 -89v-151h-65v147h-5q-125 0 -238 57q-33 16 -53 33zM172 786q0 -86 52 -130q37 -31 149 -72l9 -4v400q-93 -8 -151.5 -62.5t-58.5 -131.5zM446 40q139 22 186 126q18 38 18 86.5t-10.5 82.5t-32.5 61q-47 56 -161 94v-450z" />
<glyph unicode="%" horiz-adv-x="1253" d="M64 792q0 55 16 99.5t46 76.5q63 69 167 69q121 0 183 -75q53 -64 53 -180q0 -105 -64 -169q-65 -65 -170 -65t-169 68q-62 66 -62 176zM117 823.5q0 -57.5 8.5 -95.5t29.5 -68q46 -66 144 -66q124 0 165 112q12 34 12 70q0 217 -183 217q-81 0 -131 -59 q-45 -53 -45 -110.5zM334 16l506 1024l62 -30l-508 -1028zM724 231.5q0 54.5 16.5 99.5t46.5 77q64 68 167 68q180 0 223 -156q13 -46 13 -98t-17 -95t-48 -74t-74 -48t-95 -17t-95 17t-73.5 49.5t-47 77.5t-16.5 99.5zM778 264q0 -59 8 -97t29 -67q47 -67 145 -67 q82 0 130 54q46 51 46 128q0 217 -182 217q-80 0 -131 -58q-45 -51 -45 -110z" />
<glyph unicode="&#x26;" horiz-adv-x="1022" d="M94 243q0 113 142 215q44 30 96 60l-54 54q-20 22 -42 46t-39 50q-39 61 -39 115.5t21.5 92.5t58.5 63q74 49 162 49t136 -14t80 -41q64 -54 64 -153q0 -80 -64 -142q-51 -48 -194 -126q129 -129 309 -298q50 87 43 210l70 22q-6 -146 -39 -218q-13 -28 -31 -54 q40 -36 78 -70l76 -68l-46 -50q-37 35 -147 138q-120 -130 -297 -130q-155 0 -249 69q-95 70 -95 180zM168 237.5q0 -43.5 21 -80.5t58 -62q75 -51 195 -51q110 0 204 72q28 22 48 46q-136 128 -218 210l-108 108q-99 -60 -134.5 -97.5t-50.5 -69.5t-15 -75.5zM228 792.5 q0 -35.5 9 -60t24 -46.5q21 -32 77 -88l48 -49q128 72 165 108.5t50 63.5t13 63t-14 66t-38 50q-50 40 -138 40q-134 0 -180 -82q-16 -30 -16 -65.5z" />
<glyph unicode="'" horiz-adv-x="420" d="M178 691v363h64v-350z" />
<glyph unicode="(" horiz-adv-x="514" d="M92 446q0 104 9 171.5t28 133t47 125.5t68 113q83 113 200 169l22 -36q-294 -179 -294 -636q0 -379 195 -591q45 -49 103 -88l-26 -35q-233 113 -316 432q-36 138 -36 242z" />
<glyph unicode=")" horiz-adv-x="510" d="M88 -193q298 200 298 667t-294 648l22 36q229 -111 315 -408q37 -127 37 -268q0 -223 -82 -412q-93 -212 -270 -298z" />
<glyph unicode="*" horiz-adv-x="667" d="M56 843l21 49l227 -76v238h61v-238l223 77l20 -50l-228 -79l147 -200l-47 -30l-147 201l-145 -203l-48 34l145 198z" />
<glyph unicode="+" horiz-adv-x="753" d="M50 344v54h294v295h66v-295h297v-54h-297v-291h-66v291h-294z" />
<glyph unicode="," horiz-adv-x="397" d="M128 -150q60 40 84 104q8 20 8 41h-9q-41 0 -58 34q-5 10 -5 22q0 36 38 51q12 5 28.5 5t30.5 -8.5t23 -21.5q18 -26 18 -58t-11 -59.5t-29 -52.5q-38 -51 -96 -86z" />
<glyph unicode="-" horiz-adv-x="747" d="M126 344v54h496v-54h-496z" />
<glyph unicode="." horiz-adv-x="402" d="M140 54q0 41 38 58q12 5 25 5q41 0 58 -39q5 -11 5 -24q0 -41 -38 -58q-12 -5 -25 -5q-41 0 -58 39q-5 11 -5 24z" />
<glyph unicode="/" horiz-adv-x="666" d="M90 -232l406 1311h68l-402 -1311h-72z" />
<glyph unicode="0" horiz-adv-x="838" d="M42 518q0 71 13 138.5t38 124.5t59 102t76 77q84 64 190 64q178 0 284 -169q96 -153 96 -363q0 -190 -96 -337q-108 -165 -280 -165q-176 0 -282 164q-98 152 -98 364zM114 564q0 -77 7 -132.5t22 -111t39 -106.5t59 -90q78 -85 187 -85q138 0 221 136q77 126 77 290 q0 44 -4 84t-12 81.5t-20.5 83.5t-30.5 80.5t-41.5 72t-53.5 57.5q-64 53 -130 53t-107 -18.5t-75 -50.5t-60 -74.5t-43 -91.5q-35 -101 -35 -178z" />
<glyph unicode="1" horiz-adv-x="838" d="M148 0v50h242v886q-72 -52 -135 -76t-83 -32l-14 32q111 46 241 157h57v-967h240l-20 -50h-528z" />
<glyph unicode="2" horiz-adv-x="820" d="M94 0v60q326 303 429 431q72 91 90 133q31 70 31 130t-17 98t-47 67q-64 62 -166 62q-137 0 -264 -119l-32 36q107 100 224 122q44 8 98.5 8t105.5 -18t90 -51q86 -71 86 -189q0 -76 -17 -121q-36 -95 -123 -189q-145 -161 -240 -250t-123 -114.5t-49 -45.5h548l-22 -50 h-602z" />
<glyph unicode="3" horiz-adv-x="839" d="M116 60q84 -22 169 -22t153 15.5t115 46.5q97 62 97 183q0 136 -147 203q-65 29 -112 31.5t-64 2.5t-34 -1t-31 -1l19 52q32 0 60 1l46 1l31 2q151 24 195 140q14 36 14 83t-17 83q-49 99 -206 99q-123 0 -264 -87l-22 40q95 68 226 91q40 7 88.5 7t101 -15.5t89.5 -44.5 q79 -60 79 -164q0 -98 -65 -172q-67 -77 -169 -91q137 -26 204 -109q56 -70 55 -139.5t-18 -110t-45 -72.5t-66 -56q-113 -70 -278 -70q-96 0 -192 16z" />
<glyph unicode="4" horiz-adv-x="839" d="M80 242v58l386 716h71l-389 -723h457v337l3 139l63 20v-496h133l-20 -52h-113v-232l-67 -21v254h-524z" />
<glyph unicode="5" horiz-adv-x="839" d="M120 47q70 -14 115 -14t98 10.5t99.5 29.5t85.5 47q124 88 124 226q0 116 -83 180q-73 56 -185 56q-98 0 -232 -31l66 465h466l-12 -50h-394l-52 -352q63 14 136.5 14t113 -6.5t75.5 -20t67.5 -36t54.5 -53.5q49 -68 49 -144t-17.5 -124t-49 -88t-75 -71t-94.5 -53 q-108 -46 -226 -46q-65 0 -117 12z" />
<glyph unicode="6" horiz-adv-x="839" d="M100 397.5q0 72.5 26.5 161.5t79.5 170q141 219 415 303l14 -42q-16 -4 -30.5 -10t-27.5 -11q-25 -10 -66 -33t-97 -65t-99 -93q-88 -106 -126 -250q79 67 191 90q34 8 84 8t103.5 -24t92.5 -66q84 -90 84 -224q0 -140 -91 -235t-229 -95q-152 0 -241 118 q-54 72 -68.5 148.5t-14.5 149zM174 377q0 -37 6 -78t18 -80t32 -73.5t48 -59.5q59 -56 132 -56t119 22.5t77 61.5q65 78 65 194q0 112 -57 186q-30 38 -75 60.5t-92 22.5t-80 -7.5t-65 -21.5q-64 -28 -124 -86q-4 -48 -4 -85z" />
<glyph unicode="7" horiz-adv-x="839" d="M98 967l12 51l688 -1l-9 -48l-77 -82q-430 -465 -450 -877l-78 -20q0 309 296 710q104 140 226 267h-608z" />
<glyph unicode="8" horiz-adv-x="839" d="M84 244q0 129 158 230q48 31 104 59q-152 78 -195 191q-13 35 -13 75t22 82.5t62 75.5q85 71 214 75q115 0 194 -66q76 -63 76 -154q0 -88 -54 -145q-55 -58 -194 -125l140 -76q156 -85 156 -212t-106 -202q-95 -66 -230 -66q-146 0 -242 76q-92 73 -92 182zM158 242 q0 -42 20 -83t56 -69q75 -58 194 -58q102 0 172 55q76 59 76 141q0 39 -9 64q-24 67 -97 115q-68 43 -109 64t-65 35q-180 -78 -226 -194q-12 -28 -12 -70zM212 793q0 -126 200 -229q177 83 210 179q10 31 10 70.5t-15.5 73t-42.5 55.5q-56 44 -152 44q-86 0 -147 -53 q-63 -54 -63 -140z" />
<glyph unicode="9" horiz-adv-x="838" d="M100 698q0 143 91 236q94 96 229 96q202 0 286 -200q38 -89 38 -188q0 -199 -98 -352q-134 -209 -391 -288q-13 -4 -23 -8l-14 43q11 4 24 8.5t25.5 9.5t25.5 10t52 25.5t93 60t95 88.5q83 99 122 243q-116 -98 -263 -98q-124 0 -208 90t-84 224zM173 702 q0 -180 132 -246q45 -22 109 -22q134 0 252 114l4 84q0 196 -104 294q-59 56 -132 56t-119 -23t-77 -61q-65 -78 -65 -196z" />
<glyph unicode=":" horiz-adv-x="446" d="M162 54q0 40 39 58q11 5 25 5q40 0 57 -39q5 -11 5 -24q0 -42 -38 -58q-12 -5 -24 -5q-42 0 -59 39q-5 11 -5 24zM162 602q0 39 39 57q11 5 25 5q41 0 57 -38q5 -12 5 -24q0 -43 -38 -59q-12 -5 -24 -5q-42 0 -59 40q-5 11 -5 24z" />
<glyph unicode=";" horiz-adv-x="446" d="M142 -138q61 41 84 103q8 21 8 41h-9q-41 0 -58 34q-5 10 -5 22q0 39 38 52q12 4 28.5 4t30.5 -8t23 -22q18 -26 18 -57.5t-11 -59t-29 -52.5q-37 -49 -96 -87zM162 602q0 39 39 57q11 5 25 5q41 0 57 -38q5 -12 5 -24q0 -43 -38 -59q-12 -5 -24 -5q-42 0 -59 40 q-5 11 -5 24z" />
<glyph unicode="&#x3c;" horiz-adv-x="682" d="M58 339v33l566 268v-62l-374 -176l-107 -44h2l105 -32l374 -144v-61z" />
<glyph unicode="=" horiz-adv-x="989" d="M102 310v53h783v-53h-783zM102 528v54h783v-54h-783z" />
<glyph unicode="&#x3e;" horiz-adv-x="682" d="M58 121v61l374 144l105 32h2l-107 44l-374 176v62l566 -268v-33z" />
<glyph unicode="?" horiz-adv-x="717" d="M152 908q93 124 256 124q150 0 202 -118q19 -41 18.5 -87.5t-11.5 -76.5t-32 -60q-36 -50 -85 -99t-64.5 -65.5t-27.5 -31t-20 -27.5t-14 -29q-12 -30 -12 -56v-56q0 -12 5 -70l-63 -18q-2 35 -2 58l-2 56v8q0 88 66 170q25 32 55.5 63t53.5 56t42 53q45 66 45 113 t-14 78t-37 51q-43 37 -111 37q-115 0 -212 -109zM286 55q0 36 38 51q12 5 25 5q42 0 58 -35q5 -10 5 -21q0 -36 -38 -51q-12 -5 -25 -5q-41 0 -58 34q-5 10 -5 22z" />
<glyph unicode="@" horiz-adv-x="1194" d="M74 533q0 146 75 277q109 190 329 252q70 20 140.5 20t132.5 -14t117.5 -40t101.5 -64.5t79 -87.5q71 -104 71 -229q0 -193 -118 -317q-102 -106 -212 -106q-40 0 -56 21q-27 36 -21 77q-94 -89 -177 -96q-24 -2 -56 -2t-71 15q-80 31 -114 121q-17 44 -17 98.5 t13.5 102.5t37.5 90.5t57 78.5t72 63q81 56 168 56q96 0 150 -67q26 -33 37 -88l41 144l56 -14l-114 -401q-2 -11 -5.5 -23t-6.5 -24q-6 -31 -6 -44.5t1 -24t7 -16t20 -5.5t38.5 7.5t48.5 22t47.5 35.5t44.5 49.5t37 65.5q34 81 34 157.5t-17 127.5t-48 93t-72 75t-89 55 q-99 46 -186.5 46t-148.5 -17t-115 -49t-99 -77t-77 -99t-50 -116t-18 -130t18 -131t50 -117t76 -98t98 -76q112 -65 240 -65q165 0 294 95q41 30 74 70h80q-121 -163 -311 -210q-64 -16 -136 -16t-142 19.5t-131 55t-111 86t-86 111.5q-75 127 -75 277zM346 468 q0 -38 7.5 -67t20 -50t29.5 -35q43 -34 90 -34t82 13t67 38q67 54 99 141q26 78 26 125.5t-8.5 80t-26.5 59.5q-40 60 -106 60q-107 0 -196 -110q-84 -105 -84 -221z" />
<glyph unicode="A" horiz-adv-x="858" d="M50 0l340 1016h90l334 -1016h-72l-118 358h-389l-121 -358h-64zM252 408h356l-176 536z" />
<glyph unicode="B" horiz-adv-x="887" d="M148 0v1016h292q227 0 282 -132q20 -46 20 -97t-9 -90q-19 -82 -82 -130q-33 -25 -81 -34q108 -6 172 -84q55 -68 55 -166q0 -139 -76.5 -211t-222.5 -72h-350zM214 50h277q174 0 221 138q15 43 15 95q0 214 -277 222h-236v-455zM214 556h234q151 0 206 116q19 40 19 92 t-11.5 85.5t-31.5 55t-44.5 34t-51.5 18.5q-39 9 -96 9h-224v-410z" />
<glyph unicode="C" horiz-adv-x="862" d="M98 474q0 102 14.5 168.5t41 125t65.5 107.5t88 84q104 74 233 74q121 0 238 -63l-24 -47q-105 59 -216 59q-134 -3 -232 -106q-136 -138 -136 -388q0 -177 88 -303q101 -145 282 -145q114 0 200 68q24 18 40 37l38 -42q-61 -55 -100 -75q-82 -42 -169 -42t-147 20.5 t-108.5 56.5t-85 85.5t-60.5 107.5q-50 116 -50 218z" />
<glyph unicode="D" horiz-adv-x="940" d="M147 0v1016h238q224 0 337 -141q104 -131 104 -369q0 -306 -177 -434q-98 -72 -235 -72h-267zM213 50h167q177 0 280 127q96 118 96 315q0 374 -251 456q-55 18 -124 18h-168v-916z" />
<glyph unicode="E" horiz-adv-x="776" d="M147 0v1016h558l-13 -50h-479v-408h381v-50h-381v-458h518v-50h-584z" />
<glyph unicode="F" horiz-adv-x="777" d="M147 0v1016h558l-13 -50h-479v-408h381v-50h-381v-508h-66z" />
<glyph unicode="G" horiz-adv-x="925" d="M92 506q0 219 102 365q112 159 318 159q155 0 264 -80l-26 -44q-111 72 -234 72q-229 0 -314 -251q-36 -106 -36 -194.5t9 -144.5t27 -108t46.5 -96t67.5 -76q87 -70 204 -70q121 0 208 52l-2 380h-246l18 50h294v-467q-76 -45 -208 -61q-38 -4 -91.5 -4t-112 19 t-105.5 53.5t-81 82t-57 105.5q-45 112 -45 258z" />
<glyph unicode="H" horiz-adv-x="958" d="M147 0v1016h66v-454h533v454h66v-1016h-66v512h-533v-512h-66z" />
<glyph unicode="I" horiz-adv-x="396" d="M165 0v1016h66v-1016h-66z" />
<glyph unicode="J" horiz-adv-x="401" d="M0 -162q103 34 137 92t36 198v888h66v-886q0 -136 -45 -210q-49 -81 -173 -119z" />
<glyph unicode="K" horiz-adv-x="837" d="M133 0v1016h66v-1016h-66zM201 554l481 461h78l-482 -459q38 -39 81 -83.5t89 -91.5t93 -96t93 -97q107 -112 174 -182l-62 -22q-304 332 -545 570z" />
<glyph unicode="L" horiz-adv-x="733" d="M147 0v1016h66v-966h485l-24 -50h-527z" />
<glyph unicode="M" horiz-adv-x="1172" d="M108 0l96 1016h102l208 -678l72 -244l72 244l208 678h103l96 -1016h-69l-76 859l-9 93l-25 -89l-266 -863h-68l-266 863l-25 91l-85 -954h-68z" />
<glyph unicode="N" horiz-adv-x="956" d="M148 0v1016h94l378 -694l128 -247v941h66v-1016h-90l-382 702l-128 241v-943h-66z" />
<glyph unicode="O" horiz-adv-x="983" d="M89 518q0 70 12.5 138t37 126.5t59.5 105t80 79.5q91 68 210 68q202 0 313 -175q94 -148 94 -368q0 -200 -89 -342q-106 -168 -310 -168q-202 0 -311 169q-96 148 -96 367zM162 529.5q0 -56.5 10 -118t29 -117.5t48 -104t67 -83q80 -74 186 -74q151 0 241 144 q81 129 81 296q0 50 -7 106t-22 112.5t-40 109.5t-62 93q-83 90 -205 90q-104 0 -184 -73q-104 -94 -134 -273q-8 -52 -8 -108.5z" />
<glyph unicode="P" horiz-adv-x="807" d="M149 0v1016h283q231 0 303 -148q25 -52 25 -123t-19 -128t-57 -99q-81 -88 -236 -88h-233v-430h-66zM215 480h221q111 0 182 66q74 68 74 176q0 191 -171 231q-55 13 -128 13h-178v-486z" />
<glyph unicode="Q" horiz-adv-x="999" d="M93 537q0 89 27 184q57 194 204 271q74 38 155.5 38t139.5 -22t102.5 -60t77 -90t53.5 -112q39 -116 39 -254q0 -226 -108 -368q-61 -79 -153 -114q52 -8 93 -36t58.5 -39.5t35 -21.5t35.5 -19q41 -18 83 -20l-23 -57q-81 0 -214 101q-90 67 -182 68t-149.5 22.5 t-102 58.5t-77 87t-53.5 108.5t-31 122t-10 152.5zM164 555.5q0 -85.5 9 -148t27.5 -118t46.5 -102t65 -79.5q81 -72 190 -72q151 0 240 142q79 124 79 297q0 52 -6.5 109.5t-21.5 113.5t-40 107q-86 175 -265 175q-204 0 -290 -242q-34 -97 -34 -182.5z" />
<glyph unicode="R" horiz-adv-x="825" d="M147 0v1016h273q215 0 282 -156q22 -52 22 -113t-17 -112t-54 -89q-80 -82 -231 -82q47 -28 97 -98q13 -19 23 -32h-1q14 -22 28.5 -44.5t30 -48t33.5 -54.5t39 -63l67 -112l-70 -18q-155 288 -255 410q-37 40 -68 49q-39 11 -122 11h-11v-464h-66zM213 515h187 q182 0 236 123q20 43 20 101.5t-19 99.5t-51 69q-65 58 -168 58h-205v-451z" />
<glyph unicode="S" horiz-adv-x="827" d="M86 75l34 51q119 -90 257 -90h12q99 0 174 48q91 59 91 174q0 129 -104 188q-36 21 -86 38l-132 45q-232 77 -232 245q0 115 87 187q86 71 223 71q172 0 279 -92l-33 -40q-110 81 -240 81q-108 0 -176 -55t-68 -140q0 -82 56 -130q46 -39 146 -74l131 -46 q222 -80 222 -264q0 -182 -176 -254q-80 -33 -147 -33t-108 7t-80 19q-81 26 -130 64z" />
<glyph unicode="T" horiz-adv-x="764" d="M44 966v50h680l-16 -50h-293v-966h-66v966h-305z" />
<glyph unicode="U" horiz-adv-x="936" d="M143 270v746h66v-734q0 -163 137 -221q50 -21 122 -21q259 0 259 244v732h66v-738q0 -225 -191 -274q-60 -15 -133 -15t-130 17q-115 36 -167 140q-26 54 -29 124z" />
<glyph unicode="V" horiz-adv-x="858" d="M42 1007l64 17l316 -960l314 951h74l-347 -1015h-84z" />
<glyph unicode="W" horiz-adv-x="1231" d="M76 1012l63 12l149 -624l73 -349h1l72 349l133 616h99l134 -616l71 -349h1l74 351l142 614h70l-237 -1016h-99l-206 952l-68 -329l-136 -623h-100z" />
<glyph unicode="X" horiz-adv-x="811" d="M28 0l326 537l-282 472l66 15l252 -428l242 420h72l-282 -476l326 -540h-76l-285 481l-287 -481h-72z" />
<glyph unicode="Y" horiz-adv-x="790" d="M36 1006l66 18l286 -554l297 546h74l-341 -614v-402h-66v410h2z" />
<glyph unicode="Z" horiz-adv-x="751" d="M64 0v54l482 778l92 134h-536l20 50h585l1 -46l-488 -786l-94 -134h582l-21 -50h-623z" />
<glyph unicode="[" horiz-adv-x="380" d="M50 -231v1309h248v-44h-182v-1220h182v-45h-248z" />
<glyph unicode="\" horiz-adv-x="564" d="M5 1070l58 28l497 -1135l-60 -27z" />
<glyph unicode="]" horiz-adv-x="381" d="M100 -186h181v1220h-181v44h248v-1309h-248v45z" />
<glyph unicode="^" horiz-adv-x="981" d="M126 419l338 623h53l336 -623h-73l-288 541l-292 -541h-74z" />
<glyph unicode="_" horiz-adv-x="730" d="M-7 -121h746v-57h-746v57z" />
<glyph unicode="`" horiz-adv-x="499" d="M66 1009l40 63l320 -180l-40 -33z" />
<glyph unicode="a" horiz-adv-x="747" d="M76 184q0 110 112 182q111 70 286 70l74 -4v86q0 88 -22 119q-40 57 -154 57t-230 -74l-24 43q134 79 288 79q204 0 204 -200v-366q0 -95 23 -126q9 -14 23 -24l-31 -40q-63 31 -71 106q-86 -91 -186 -100q-29 -2 -75 -2t-89 17q-128 50 -128 177zM142 198 q0 -47 14.5 -76.5t39.5 -48.5q48 -38 107 -38t91 9q93 28 154 116v226q-60 6 -91 6t-71 -7t-76 -19.5t-67 -30t-53 -40.5q-48 -50 -48 -97z" />
<glyph unicode="b" horiz-adv-x="803" d="M120 0q11 44 11 119v943l62 11v-431q111 103 253 103q125 0 202 -104q76 -101 76 -262q0 -168 -77 -278q-80 -115 -209 -115q-101 0 -200 65q-26 17 -44 33q-3 -46 -12 -84h-62zM192 574h1v-422q57 -73 165 -103q33 -9 68.5 -9t69.5 13t60 37t45 56.5t31 71.5 q24 76 24 138.5t-5 98t-16 70.5t-29 66t-44 54q-58 51 -140 51q-94 0 -192 -82q-25 -22 -38 -40z" />
<glyph unicode="c" horiz-adv-x="667" d="M80 372q0 165 87 269q86 103 219 103q120 0 196 -76l-28 -34q-64 64 -166 64q-115 0 -182 -108q-58 -93 -58 -212q0 -182 106 -286q57 -56 145.5 -56t167.5 67l33 -37q-86 -78 -213 -78q-138 0 -223 110q-84 109 -84 274z" />
<glyph unicode="d" horiz-adv-x="803" d="M77 379q0 158 79.5 262t206.5 104q115 0 190 -59q25 -19 53 -44v419l62 13v-923q0 -99 27 -141l-53 -22q-27 34 -32 98q-106 -100 -248 -100q-128 0 -208 115q-77 110 -77 278zM146 400.5q0 -59.5 5.5 -102t18 -81t31 -71t45.5 -56.5q55 -50 135 -50q90 0 182 68 q27 20 45 44h-2v418h1q-57 79 -155 112q-35 12 -76 12t-74.5 -13t-59.5 -36.5t-44.5 -54.5t-29.5 -66q-22 -64 -22 -123.5z" />
<glyph unicode="e" horiz-adv-x="747" d="M96 376q0 211 128 316q65 54 138.5 54t114.5 -15t70 -41.5t47 -63t29 -79.5q19 -74 19 -189h-482q0 -132 62 -225q67 -100 175 -100t193 74l36 -33q-89 -86 -234 -86q-139 0 -218 110q-78 106 -78 278zM160 406h417q0 224 -125 278q-33 14 -75.5 14t-80.5 -22.5 t-68 -61.5q-64 -85 -68 -208z" />
<glyph unicode="f" horiz-adv-x="432" d="M39 692v40h103v129q0 135 106 176q34 13 73 13q67 0 128 -27l-15 -35q-46 21 -97 21q-133 0 -133 -148v-129h200l-12 -40h-188v-692h-62v692h-103z" />
<glyph unicode="g" horiz-adv-x="771" d="M88 -87l70 16q4 -55 20 -79q37 -78 205 -78q102 0 171 40q72 42 72 112q0 132 -123 138q-19 1 -37 1h-230q-79 0 -106 54q-8 16 -8 34q0 90 178 149q-140 21 -190 131q-20 44 -20 89.5t23 87.5t61 72q82 65 190 65q77 0 127 -16q72 -23 128 -23t108 29l23 -47 q-44 -27 -102 -27q-39 0 -84 12q70 -58 70 -148q-6 -132 -136 -197q-40 -20 -89 -32t-90 -29.5t-71 -38.5q-58 -39 -58 -73q0 -3 1 -6q5 -37 59 -39h34h192q212 0 212 -179q0 -96 -92 -153q-83 -51 -210 -51q-205 0 -266 99q-24 38 -32 87zM154 520q0 -82 68 -134 q61 -47 142 -47q79 0 138 47q66 53 66 136q0 45 -17 78q-50 99 -191 99q-128 0 -187 -102q-19 -33 -19 -77z" />
<glyph unicode="h" horiz-adv-x="798" d="M133 0v1063l62 10v-483q152 152 284 152q136 0 185 -100q16 -34 16 -76v-566h-62v526q0 84 -25 114q-44 53 -127 53q-85 0 -200 -101q-47 -40 -72 -75h1v-517h-62z" />
<glyph unicode="i" horiz-adv-x="366" d="M130 966q0 36 32 50q10 4 22 4q33 0 48 -32q5 -10 5 -22q0 -34 -33 -48q-10 -5 -20 -5q-36 0 -50 33q-4 9 -4 20zM152 0v729l62 9v-738h-62z" />
<glyph unicode="j" horiz-adv-x="368" d="M46 -236q85 51 102 146q6 33 6 75v741l62 13v-747q0 -141 -70 -215q-28 -29 -70 -53zM130 966q0 36 32 50q10 4 22 4q33 0 48 -32q5 -10 5 -22q0 -34 -33 -48q-10 -5 -20 -5q-36 0 -50 33q-4 9 -4 20z" />
<glyph unicode="k" horiz-adv-x="735" d="M131 0v1062l62 11v-1073h-62zM194 422l368 310h90l-382 -310l448 -412l-72 -20z" />
<glyph unicode="l" horiz-adv-x="368" d="M153 80v982l62 12v-958q0 -54 6.5 -74t10.5 -33l-56 -17q-23 46 -23 88z" />
<glyph unicode="m" horiz-adv-x="1155" d="M110 713l56 18q28 -35 28 -113q152 123 260 123q133 0 156 -121q106 101 195 116q29 5 64 5t66 -13q95 -38 95 -158v-570h-62v556q0 135 -116 135q-63 0 -106 -25q-49 -29 -134 -104v-562h-62v546q0 73 -16 99q-30 47 -94 47q-100 0 -246 -131v-561h-62v587q0 80 -22 126 z" />
<glyph unicode="n" horiz-adv-x="790" d="M116 726l58 14q22 -37 22 -122q134 127 269 127t183 -97q15 -31 15 -73v-575h-62v546q0 154 -156 154q-95 0 -221 -119q-18 -17 -30 -31l2 -550h-62v593q0 76 -18 133z" />
<glyph unicode="o" horiz-adv-x="794" d="M74 372q0 164 90 270t221 106q194 0 279 -203q36 -86 36 -180t-24.5 -162.5t-67.5 -117.5q-88 -102 -217 -102q-139 0 -228 112t-89 277zM140 391q0 -137 56 -239q68 -125 197 -125q110 0 180 105q64 96 64 215q0 37 -5.5 78t-18.5 81t-33 76t-48 63q-62 60 -147 60 q-110 0 -182 -106q-63 -93 -63 -208z" />
<glyph unicode="p" horiz-adv-x="805" d="M119 724l55 17q21 -11 21 -103q108 108 255 108q124 0 199 -112q71 -107 71 -266q0 -144 -70 -253q-79 -125 -210 -125q-134 0 -245 99v-349l-62 -12v874q0 80 -14 122zM194 571l1 -415q98 -120 225 -120q116 0 181 109q53 89 53 209q0 187 -82 280q-53 61 -138 61 q-95 0 -184 -70q-30 -23 -56 -54z" />
<glyph unicode="q" horiz-adv-x="801" d="M82 368q0 159 71 266q75 112 210.5 112t243.5 -108q0 80 18 94h61q-17 -44 -17 -130v-858l-62 -17v360q-97 -84 -189 -94q-28 -3 -65 -3t-76.5 15t-70.5 42t-54 63q-70 108 -70 258zM148 378q0 -55 5 -90.5t17 -71t31 -68.5t45 -58q57 -56 136 -56q94 0 177 70 q27 22 48 52v415q-102 124 -239 124q-158 0 -205 -199q-15 -63 -15 -118z" />
<glyph unicode="r" horiz-adv-x="508" d="M119 723l59 15q16 -48 16 -90v-49q102 139 273 139h23l-23 -49l-16 1q-130 -9 -215 -112q-42 -51 -42 -106v-472h-62v604q0 76 -13 119z" />
<glyph unicode="s" horiz-adv-x="667" d="M79 53l26 42q102 -62 227 -62q75 0 117 31q77 55 77 123q0 62 -20 85q-33 39 -89.5 57.5t-91.5 27t-91.5 24.5t-97.5 57.5t-41 94t19.5 89.5t53.5 64q73 58 176 58q120 0 208 -46l-18 -35q-93 40 -195 40q-74 0 -128 -43t-54 -106q0 -56 25 -79q38 -36 98 -53l136 -36 q137 -37 166 -122q9 -28 9 -68t-19.5 -79t-55.5 -67q-76 -60 -190 -60q-126 0 -247 63z" />
<glyph unicode="t" horiz-adv-x="475" d="M47 687v45h96v182l61 12v-194h180l-11 -45h-168v-519q0 -70 11 -91q19 -39 52 -42q8 -1 17 -1q51 0 107 26l16 -34q-52 -32 -110.5 -32t-83 8t-40.5 25q-31 33 -31 103v557h-96z" />
<glyph unicode="u" horiz-adv-x="807" d="M128 156v571l64 13v-554q0 -125 95 -148q27 -6 58 -6t67 12q75 26 136 80q30 26 48 54v549l62 13v-589q0 -80 10 -103.5t18 -37.5l-52 -19q-38 28 -38 117q-125 -122 -270 -122q-134 0 -182 96q-16 32 -16 74z" />
<glyph unicode="v" horiz-adv-x="688" d="M29 727l63 13l170 -472l69 -200l72 200l175 464h64l-282 -732h-64z" />
<glyph unicode="w" horiz-adv-x="1018" d="M38 726l60 16l184 -672q13 50 26.5 100t26.5 100l134 462h72l133 -463l52 -199q13 51 26.5 101.5t25.5 100.5l130 460h64l-209 -732h-69l-148 500l-42 156q-10 -40 -20.5 -79t-20.5 -78l-149 -499h-68z" />
<glyph unicode="x" horiz-adv-x="659" d="M24 0l274 396l-238 331l66 15l204 -300l194 290h78l-242 -336l282 -396h-72l-240 348l-234 -348h-72z" />
<glyph unicode="y" horiz-adv-x="688" d="M44 723l56 21l186 -524l70 -210l-52 -19zM176 -236q101 35 155 206l253 762h68l-266 -773q-33 -96 -64 -136q-55 -71 -126 -97z" />
<glyph unicode="z" horiz-adv-x="628" d="M56 0v48l432 639h-396l13 45h453v-41l-438 -647h436l-16 -44h-484z" />
<glyph unicode="{" horiz-adv-x="507" d="M61 406v38q94 13 133 126q11 34 11 73v270q0 75 39 121q36 44 92 44h120v-40h-94q-82 0 -89 -104q-2 -28 -2 -54v-258q0 -78 -53 -140q-46 -53 -94 -58q51 -10 84 -46q63 -69 63 -152v-269q0 -70 11 -95q21 -50 80 -50h94v-42h-120q-92 0 -122 97q-9 31 -9 69v269 q0 76 -42 136q-40 57 -102 65z" />
<glyph unicode="|" horiz-adv-x="333" d="M135 -26v1142h67v-1142h-67z" />
<glyph unicode="}" horiz-adv-x="507" d="M51 -188h95q81 0 88 92q2 26 2 53v269q0 84 54 141q44 48 93 57q-49 8 -83 46q-64 73 -64 152v258q0 110 -40 143q-18 15 -50 15h-95v40h121q56 0 92 -44q38 -45 38 -121v-270q0 -75 42 -134q42 -57 102 -65v-38q-60 -8 -102 -65q-42 -59 -42 -136v-269q0 -119 -78 -155 q-24 -11 -52 -11h-121v42z" />
<glyph unicode="~" horiz-adv-x="981" d="M158 430q42 64 124 94q26 9 49.5 9t40 -3t32.5 -8.5t31 -13.5t33 -16l84 -44q99 -53 178 -9q34 19 56 47l38 -26q-39 -65 -123 -90q-27 -8 -50 -8t-38 2.5t-28.5 7t-26 11t-26.5 13.5l-83 44q-74 38 -135 38t-121 -76z" />
<glyph unicode="&#xe01;" horiz-adv-x="883" d="M106 682q122 85 275 116q48 9 97.5 9t92.5 -7q148 -22 168 -143q8 -48 8 -109v-548h-64v528q0 107 -10.5 138.5t-33.5 50t-51 27.5q-46 16 -123 15q-146 -2 -281 -91q40 -62 40 -126v-542h-64v532q0 59 -20 99z" />
<glyph unicode="&#xe02;" horiz-adv-x="789" d="M80 733q89 73 187 73q118 0 153 -67q12 -23 12 -52t-6 -51t-18 -41q-13 -23 -66 -78l-56 -59q-56 -59 -65 -89.5t-9 -48.5v-114q0 -121 112 -160q36 -12 79.5 -12t76.5 13q106 43 106 173v571l64 13v-581q0 -180 -164 -224q-42 -11 -95.5 -11t-97 15.5t-75.5 42.5 q-70 58 -70 142v134q0 66 96 162l56 60q54 58 62 84t8 51.5t-12 43t-29 27.5q-28 15 -66 15q-72 0 -155 -71z" />
<glyph unicode="&#xe03;" horiz-adv-x="785" d="M33 770l36 37q22 -18 37.5 -31.5t27.5 -23.5q22 -17 43 -34l18.5 18.5l11.5 11.5q12 10 23.5 21.5t26.5 19.5t29 11q17 5 45 5t49.5 -11t34.5 -28q25 -33 25 -67.5t-7 -56.5t-19 -41q-19 -30 -58 -69l-72 -72q-55 -55 -62.5 -86.5t-7.5 -57.5v-110q0 -118 106 -158 q36 -14 78 -14t75 12t58 37q53 53 53 145v562l64 12v-580q0 -131 -96 -193q-64 -41 -168 -41q-100 0 -166 57q-68 58 -68 143v132q0 78 91 169l73 73q53 53 59.5 78t6.5 51.5t-16 46.5t-37 20t-37 -9q-29 -17 -50.5 -41t-32.5 -34l-25 -25q-3 3 -149 121z" />
<glyph unicode="&#xe04;" horiz-adv-x="879" d="M138 0v604q0 79 85 139q89 63 229 63q124 0 204 -52q86 -56 86 -150v-604h-64v583q0 175 -248 175q-70 0 -118 -25t-67 -44q-43 -43 -43 -101v-219q69 99 158 110q23 3 44 3l50 -2l-10 -48h-50q-94 3 -162 -94q-18 -28 -30 -59v-279h-64z" />
<glyph unicode="&#xe05;" horiz-adv-x="903" d="M138 0v536q0 166 104 234q38 25 94 41l128 -107l124 106q125 -25 165 -124q13 -32 13 -68v-618h-64v596q0 128 -96 157l-140 -114l-140 112q-50 -8 -86 -58q-38 -53 -38 -143v-201q69 99 158 110q23 3 44 3l50 -2l-10 -48h-50q-33 1 -62 -12q-87 -36 -130 -140v-260h-64z " />
<glyph unicode="&#xe06;" horiz-adv-x="861" d="M28 774l36 32q32 -28 92 -88l34 34q53 53 110 53q74 0 100 -62q8 -19 8 -42.5t-4.5 -42t-15.5 -38.5q-16 -27 -59.5 -82t-60.5 -77.5t-28 -42.5q-24 -41 -24 -74v-160q127 -148 268 -148q174 0 174 182v572l64 12v-603q0 -163 -128 -199q-38 -10 -68 -10h-49 q-117 0 -261 136q-2 -91 -22 -138l-62 20q20 56 20 106v218q0 73 69 158q21 26 44 53.5t39 48t26 38.5q20 34 20 59q0 71 -54 71q-30 0 -102 -76l-32 -36q-22 23 -46 45t-43 39.5t-31 29t-14 12.5z" />
<glyph unicode="&#xe07;" horiz-adv-x="673" d="M42 538l57 15l166 -511q12 -4 43.5 -4t61 10.5t52.5 31.5q51 48 51 136v312q0 109 -15.5 142.5t-37.5 51.5t-56 36l27 49q97 -43 126 -115q20 -50 20 -151v-317q0 -174 -151 -220q-38 -11 -67 -11t-40 1q-45 2 -63 6z" />
<glyph unicode="&#xe08;" horiz-adv-x="751" d="M33 714q173 93 330 93q127 0 197 -63q39 -36 46.5 -82t7.5 -84v-359q0 -93 -20 -130t-42 -55q-49 -40 -136 -40q-6 0 -18 1t-25.5 2l-27 2t-25.5 3l-98 386q-12 48 -60 80l42 46q38 -22 64 -68q8 -16 12 -35l96 -369q17 -5 51.5 -3t59.5 16.5t39 38.5q24 41 24 138 l-1 363q0 163 -205 163q-92 0 -214 -54q-36 -16 -66 -34z" />
<glyph unicode="&#xe09;" horiz-adv-x="851" d="M75 695q183 110 377 110q260 0 260 -254v-394q0 -87 22 -148l-62 -17q-24 64 -24 146q-141 -131 -241 -144q-28 -3 -61 -3t-68.5 13.5t-61.5 37.5q-56 49 -56 127v186q0 62 -26 97l50 39q40 -52 40 -95v-198q0 -71 22 -101q42 -57 128 -57q96 0 212 102q34 30 62 64v324 q0 109 -31 150q-57 76 -177 76q-160 0 -335 -100z" />
<glyph unicode="&#xe0a;" horiz-adv-x="787" d="M72 738q91 68 186 68q100 0 138 -60q12 -20 15 -45q175 0 265 179l54 -31q-73 -146 -218 -171q138 -39 138 -206v-249q0 -180 -166 -224q-42 -11 -95.5 -11t-99 15.5t-79.5 42.5q-74 59 -74 142v134q0 56 69 134q23 26 50 55t45 50.5t30 40.5q24 40 24 71.5t-11 49 t-26 26.5q-25 15 -53 15t-47.5 -5t-39.5 -14q-46 -21 -75 -48zM200 206q0 -120 120 -161q38 -13 81.5 -13t76.5 13q67 27 94 97q14 34 14 78v246q0 84 -21.5 116.5t-46.5 47.5q-55 32 -108 32q-8 -58 -66 -124q-19 -23 -45 -52t-45 -52.5t-31 -42.5q-23 -36 -23 -71v-114z " />
<glyph unicode="&#xe0b;" horiz-adv-x="801" d="M32 770l36 37q22 -18 37.5 -31.5t28.5 -23.5l42 -34q18 18 31 30t29 26q35 31 75 31t59.5 -8.5t33.5 -22.5q30 -30 34 -73q21 0 43 4t48.5 14.5t54.5 31.5q65 48 104 129l54 -31q-73 -146 -215 -171q135 -39 135 -206v-249q0 -180 -166 -224q-41 -11 -94.5 -11 t-99.5 15.5t-80 42.5q-74 59 -74 142l1 132q0 66 50 125q17 20 41 44l72 73q67 67 67 112q0 84 -58 84q-31 0 -58 -27l-82 -82q-3 3 -149 121zM213 206q0 -76 55 -125q54 -48 150 -48q75 0 127 51q53 51 53 136v246q0 86 -21 118q-44 68 -123 76q-14 2 -18 2 q-11 -55 -55 -102q-26 -28 -97 -99t-71 -149v-106z" />
<glyph unicode="&#xe0c;" horiz-adv-x="1278" d="M106 692q163 116 356 116q196 0 242 -122q17 -40 17 -152v-340q107 -156 215 -156q140 0 140 146v605l64 13v-633q0 -125 -111 -165q-35 -12 -74.5 -12t-68 6.5t-55.5 21.5q-49 27 -113 101q-2 -74 -24 -131l-60 22q22 48 22 140l1 402q0 77 -11.5 109.5t-25.5 48.5 q-42 48 -172 48q-125 0 -266 -76q43 -67 43 -130v-394q0 -68 19 -88q31 -34 114 -36l6 -43q-8 -1 -15 -1h-11q-122 0 -162 78q-15 28 -15 70v394q0 63 -21 100z" />
<glyph unicode="&#xe0d;" horiz-adv-x="1258" d="M105 692q163 116 356 116q196 0 242 -122q17 -40 17 -152v-317q0 -127 84 -159q32 -12 68.5 -12t60 9t43.5 23t35 33t25 39q21 42 21 77v563l64 12v-736q0 -268 -252 -273q-131 0 -204 69l45 40q65 -62 162 -62q102 6 144 57q43 52 43 191q-64 -87 -187 -87 q-158 0 -202 116q-14 37 -14 84v353q0 12 -1 28.5t-2 33.5q-4 73 -31.5 96t-53.5 32q-48 18 -99 18t-86 -4.5t-70 -13.5q-70 -20 -131 -60q42 -72 42 -130v-396q0 -67 19 -86q34 -35 113 -37l7 -42q-8 -1 -15 -1h-10q-178 0 -178 148v422q0 37 -20 72z" />
<glyph unicode="&#xe0e;" horiz-adv-x="892" d="M82 41q7 0 12.5 -0.5t25.5 2.5t36 12t24 24q12 23 12 91v349q0 59 -20 86t-30 41l-35 46q116 80 273 105q50 8 98 8t89.5 -7.5t74.5 -22.5q71 -32 98 -91q14 -39 14 -126v-704q0 -113 -88 -142q-26 -8 -58 -8l-167 84q-49 -21 -115 -87l-38 37q93 86 155 102l176 -86 q71 0 71 94v684q0 102 -18 143q-40 89 -209 85q-133 -4 -279 -77q53 -66 62.5 -94.5t9.5 -48.5v-412q0 -121 -136 -130l-33 1z" />
<glyph unicode="&#xe0f;" horiz-adv-x="893" d="M82 40h14q28 0 52 13t32 28q12 23 12 89v350q0 58 -20 86l-30 42l-35 44q167 114 371 114q207 0 262 -121q14 -39 14 -126v-713q0 -94 -80 -129q-30 -13 -76 -13l-105 82l-117 -88l-122 100q-57 -25 -92 -102l-46 29q55 111 150 131l112 -93l116 87l128 -96q68 0 68 88 v690q0 102 -16 141q-35 87 -212 87q-130 0 -278 -76q72 -90 72 -143v-413q0 -121 -136 -130h-33z" />
<glyph unicode="&#xe10;" horiz-adv-x="751" d="M29 718q160 89 334 89q65 0 97 -11q47 -18 76 -11q71 17 140 80l40 -43q-48 -48 -158 -78q56 -39 56 -166v-359q0 -93 -20 -130t-42 -55q-49 -40 -136 -40q-6 0 -18 1t-25.5 2l-27 2t-25.5 3l-98 386q-15 54 -60 84l47 40q57 -40 71 -101l96 -368q8 -5 47 -3t64 16t39 38 q24 41 24 138v363q0 165 -206 165q-92 0 -218 -55q-35 -15 -63 -32zM123 -241l35 46q39 -40 86 -51l116 83l121 -93q63 6 63 84v44l65 14v-56q0 -58 -23 -83q-47 -49 -130 -49l-98 78l-105 -78q-65 8 -130 61z" />
<glyph unicode="&#xe11;" horiz-adv-x="916" d="M50 772l37 32l65 -71q80 74 136 74q43 0 66 -34q22 -31 18 -73q105 105 233 105q84 0 131 -51q43 -47 43 -126v-628h-64v574q0 90 -17 120q-35 60 -115 60q-86 0 -176 -98q-118 -128 -123 -234q-1 -22 -1 -48v-374h-64v365q0 68 7 95q15 52 39.5 97.5t29.5 55.5t9 21 q31 89 -5 118q-7 5 -18.5 5t-28 -9.5t-34.5 -23.5t-36 -32t-34 -33q-67 82 -98 113z" />
<glyph unicode="&#xe12;" horiz-adv-x="1298" d="M110 255v279q0 247 213 276l109 -102l110 103q180 -32 180 -205v-424q74 -94 176 -132q34 -12 66 -12q132 0 132 153v601l64 11v-638q0 -123 -105 -164q-33 -13 -70 -13t-65.5 4t-58.5 18q-58 27 -139 104q-2 -81 -23 -124l-61 20q20 40 20 133v441q0 74 -23 115t-75 55 l-130 -118l-128 117q-49 -5 -77 -39q-51 -65 -51 -165v-305q0 -97 20 -131q32 -53 76 -63q22 -4 48 -4l32 2q6 0 10 1l8 -47q-28 -4 -67 -4t-72 12t-55 33t-35 47.5t-19 55.5q-10 47 -10 109z" />
<glyph unicode="&#xe13;" horiz-adv-x="1286" d="M110 692q163 116 356 116q196 0 242 -122q16 -37 16 -89v-63l1 -331q0 -167 137 -167q100 0 180 98q26 32 43 70v586l64 12v-637q0 -92 7 -114.5t14 -42.5l-56 -22q-8 14 -14 32q-15 40 -15 96q-54 -69 -93.5 -89.5t-72.5 -27.5t-73 -7t-74 14q-108 43 -111 164l-1 386 v28q0 151 -130 174q-129 22 -286 -44q-34 -14 -58 -28q42 -67 42 -130v-396q0 -65 19 -86q33 -35 114 -37l7 -42q-8 -1 -15 -1h-11q-123 0 -164 78q-14 28 -14 70v422q0 37 -20 72z" />
<glyph unicode="&#xe14;" horiz-adv-x="851" d="M108 306v183q0 225 176 295q61 24 132.5 24t123.5 -15.5t90 -44.5q83 -61 83 -160v-588h-64v564q0 193 -237 193q-164 0 -221 -149q-19 -50 -19 -119v-211q0 -234 142 -234q30 0 78 6l6 -48q-46 -6 -91.5 -6t-80 16t-56.5 42.5t-35 60t-19 67.5q-8 45 -8 124z" />
<glyph unicode="&#xe15;" horiz-adv-x="879" d="M110 255v279q0 247 213 276l118 -104l119 105q180 -32 180 -205l1 -606h-65v584q0 74 -22 116t-75 56l-139 -120l-137 119q-81 -12 -116 -114q-13 -38 -13 -92v-305q0 -97 20 -130.5t38 -45.5q34 -24 86 -24h16q13 0 28 2l6 -44q-28 -4 -67 -4t-71.5 12t-54.5 33 t-35 47.5t-20 55.5q-10 46 -10 109z" />
<glyph unicode="&#xe16;" horiz-adv-x="895" d="M106 682q184 126 374 126q239 0 268 -148q9 -43 9 -112v-548h-64v532q0 106 -13 140q-33 94 -214 90q-112 -3 -227 -58q-33 -16 -57 -32q42 -59 42 -128l1 -366q0 -75 25 -100q40 -40 122 -40l6 -42h-40q-125 0 -164 86q-13 30 -13 72v378q0 57 -7.5 72.5t-13.5 27.5z " />
<glyph unicode="&#xe17;" horiz-adv-x="847" d="M119 786l61 20q20 -60 20 -124v-45q96 92 145 121q88 52 148 52t97.5 -12.5t64.5 -35.5q55 -48 55 -135v-627h-64v574q0 88 -21 122q-39 62 -125 62q-121 0 -297 -187v-571h-64v654q0 65 -20 132z" />
<glyph unicode="&#xe18;" horiz-adv-x="802" d="M110 635q0 37 25 70.5t65 56.5q79 44 176 44q162 0 286 -58l-20 -46q-126 55 -247 55q-152 0 -203 -73q-16 -24 -16 -54t13 -51q24 -39 92 -65q31 -14 69 -24l172 -48q159 -45 188 -138q12 -36 12 -88t-22 -94.5t-63 -71.5q-84 -58 -232 -58q-100 0 -213 40 q-34 12 -64 28v322l64 14v-306q95 -52 222 -52q134 0 204 72q38 39 38 85.5t-6 74.5q-17 78 -136 116l-218 64q-153 46 -178 124q-8 24 -8 61z" />
<glyph unicode="&#xe19;" horiz-adv-x="847" d="M118 786l60 22q24 -64 24 -104v-492q0 -173 161 -173q107 0 227 111q32 28 54 56v583l64 12v-653q0 -73 20 -140l-65 -19q-19 80 -19 125v25q-97 -89 -148 -113q-179 -83 -296 13q-62 51 -62 128v507q0 50 -8 74q-10 30 -12 38z" />
<glyph unicode="&#xe1a;" horiz-adv-x="849" d="M116 781l58 27q28 -49 28 -120v-462q0 -136 129 -178q43 -14 82 -14t64 4t49 13t46 23t38 33q36 43 36 101v580l64 13v-605q0 -84 -72 -142q-82 -66 -224 -66q-117 0 -196 59q-76 57 -80 149v486q0 50 -22 99z" />
<glyph unicode="&#xe1b;" horiz-adv-x="849" d="M116 781l58 27q28 -49 28 -120v-462q0 -136 129 -178q43 -14 82 -14t64 4t49 13t46 23t38 33q36 43 36 101v939l64 13v-964q0 -83 -74 -142q-85 -66 -229 -66q-112 0 -188 59q-77 59 -81 149v486q0 50 -22 99z" />
<glyph unicode="&#xe1c;" horiz-adv-x="879" d="M110 264v279q0 105 21 148t43 64q47 45 134 45q32 0 60 -4l-6 -46l-37 3h-7q-58 0 -81 -16t-34.5 -35.5t-18.5 -43.5q-10 -39 -10 -104v-305q0 -96 45 -155q35 -45 83 -50l138 118l138 -118q54 17 71 46q27 47 27 124v582h64v-604q0 -81 -30 -119q-53 -69 -150 -86 l-120 103l-118 -102q-212 29 -212 276z" />
<glyph unicode="&#xe1d;" horiz-adv-x="879" d="M110 264v279q0 105 21 148t43 64q47 45 134 45q32 0 60 -4l-6 -46l-25 2l-19 1q-58 0 -81 -16t-34.5 -35.5t-18.5 -43.5q-10 -39 -10 -104v-305q0 -96 45 -155q35 -45 83 -50l138 118l138 -118q54 17 71 46q27 47 27 124v938l64 10v-970q0 -81 -30 -119q-53 -69 -150 -86 l-120 103l-118 -102q-212 29 -212 276z" />
<glyph unicode="&#xe1e;" horiz-adv-x="1074" d="M118 789l64 19q20 -64 20 -88v-526q0 -78 29 -118t81 -40t85 17t57 47q52 67 52 161v529l64 12v-539q0 -153 79 -207q29 -20 68.5 -20t68 10.5t47.5 34.5q38 48 38 159v550l64 12v-573q0 -143 -69 -197q-52 -41 -145 -41q-116 0 -167 84q-14 23 -24 47 q-66 -132 -207 -132q-134 0 -173 112q-12 34 -12 76v522q0 24 -20 89z" />
<glyph unicode="&#xe1f;" horiz-adv-x="1074" d="M118 789l64 19q20 -64 20 -88v-526q0 -78 29 -118t81 -40t85 17t57 47q52 67 52 161v529l64 12v-539q0 -153 79 -207q29 -20 68.5 -20t68 10.5t47.5 34.5q38 48 38 159v908l64 12v-931q0 -143 -69 -197q-52 -41 -145 -41q-116 0 -167 84q-14 23 -24 47 q-66 -132 -207 -132q-134 0 -173 112q-12 34 -12 76v522q0 24 -20 89z" />
<glyph unicode="&#xe20;" horiz-adv-x="895" d="M84 40h15q27 0 51 13t32 28q12 23 12 89v348q0 66 -49 128l-35 44q167 114 371 114q206 0 261 -121q14 -39 14 -126v-557h-64v570q0 97 -42 136q-55 50 -185 50q-144 0 -279 -75q12 -15 25 -31t24 -34q23 -38 23 -77v-411q0 -121 -136 -130h-32z" />
<glyph unicode="&#xe21;" horiz-adv-x="837" d="M117 10q21 48 21 123v538q0 67 -16 115l61 17q19 -49 19 -87v-510q91 -108 210 -152q38 -14 77.5 -14t68 10t46.5 30q32 39 32 127v581l64 13v-636q0 -81 -59 -131q-56 -46 -145 -46q-137 0 -294 144v-40q-4 -63 -22 -103z" />
<glyph unicode="&#xe22;" horiz-adv-x="837" d="M98 225q0 99 73 163q25 22 60 36q-99 34 -124 127q-7 25 -7 47t4 45t14 45t26 42t41 35q53 32 137 32l40 -1q12 0 23 -1t19 -1l-5 -40h-55q-123 0 -165 -84q-15 -30 -15 -72t16 -71q47 -85 158 -85h66l-12 -42l-49 -2q-124 0 -167 -94q-32 -69 4 -149q34 -76 122 -107 q44 -16 84.5 -16t67 3.5t52.5 12t49.5 23.5t40.5 37q38 47 38 120v562l64 12v-584q0 -164 -171 -213q-59 -17 -129.5 -17t-123 17t-91.5 49q-85 68 -85 171z" />
<glyph unicode="&#xe23;" horiz-adv-x="687" d="M93 65l28 47q109 -83 229 -83q135 0 183 103q15 32 15 68t-9 60q-18 47 -69 73q-24 13 -58 25l-115 40q-132 44 -178 130q-17 31 -17 75.5t19 83.5t52 66t80 41.5t88 14.5t68 -3.5t54 -9.5q51 -11 101 -34l-18 -40q-96 44 -165 44t-103 -12.5t-58 -33.5q-52 -46 -52 -114 q0 -105 158 -161q26 -9 53 -18l60 -20q143 -50 167 -135q8 -28 8 -71t-19.5 -85t-54.5 -71q-73 -59 -175 -59q-172 0 -272 79z" />
<glyph unicode="&#xe24;" horiz-adv-x="895" d="M106 682q185 126 374 126q239 0 268 -148q9 -43 9 -112v-830l-64 -16v826q0 106 -11 135.5t-27.5 47.5t-42.5 29q-50 21 -119 21t-110 -9q-122 -27 -201 -84q43 -60 43 -124l-1 -366q0 -75 24 -100q40 -39 124 -41l6 -41h-40q-125 0 -164 86q-13 30 -13 72v378 q0 57 -7.5 72.5t-13.5 27.5z" />
<glyph unicode="&#xe25;" horiz-adv-x="823" d="M91 220q0 57 29.5 104.5t86.5 79.5q113 62 327 62h25l61 -4v44l1 62q0 92 -12.5 115t-27.5 35.5t-37 21.5q-44 18 -124 18q-127 0 -288 -86l-28 44q160 90 334 90q188 0 233 -106q16 -32 15 -76.5t-2.5 -107t-1.5 -162.5v-172l2 -182h-64q0 17 -1 42t-1 60v192 q0 65 2 121q-20 5 -53 5h-43q-265 0 -342 -117q-26 -37 -26 -82t14.5 -79t39.5 -57q53 -47 140 -47l30 2l10 -42q-32 -2 -68 -2t-70 9.5t-61 26t-46 38.5t-31 46q-23 47 -23 104z" />
<glyph unicode="&#xe26;" horiz-adv-x="891" d="M80 40h14q30 0 53 13t31 28q13 22 13 89v350q0 58 -30 101q-9 13 -19 27l-36 44q167 114 372 114t260 -121q15 -42 15 -126v-843l-65 -13l1 829q0 110 -12.5 136t-30.5 42t-43 27q-52 23 -129 23q-146 0 -290 -76q71 -89 71 -143v-413q0 -121 -137 -130h-32z" />
<glyph unicode="&#xe27;" horiz-adv-x="682" d="M39 728q90 78 233 78q159 0 240 -113q72 -100 72 -279q0 -165 -71 -284q-51 -86 -141 -122q-46 -19 -93.5 -19t-78.5 6.5t-56 16.5q-44 17 -80 48l34 45q78 -64 172 -64q166 0 224 218q22 80 22 161.5t-15 141.5q-31 122 -123 170q-46 24 -88.5 24t-69 -4.5t-53.5 -13.5 q-59 -20 -101 -52z" />
<glyph unicode="&#xe28;" horiz-adv-x="879" d="M138 0v604q0 78 84 139q88 63 230 63q53 0 89 -10q49 -12 88 -7q102 15 193 91l38 -44q-50 -44 -152 -72q-29 -8 -54 -11q87 -59 87 -149v-604h-64v583q0 175 -248 175q-71 0 -118 -25t-66 -44q-43 -43 -43 -101v-219q69 99 158 110q23 3 44 3l50 -2l-10 -48h-50 q-94 3 -162 -94q-18 -28 -30 -59v-279h-64z" />
<glyph unicode="&#xe29;" horiz-adv-x="849" d="M116 781l58 27q28 -49 28 -120v-462q0 -136 129 -178q43 -14 82 -14t64 4t49 13t46 23t38 33q36 41 36 101v206q-129 0 -159 13q-50 22 -85 61l38 37q51 -51 72.5 -55.5t41.5 -7.5q28 -4 92 -4v330l64 13v-341q8 1 16 1.5t15 1.5t16 3q36 8 71 30l21 -41 q-44 -39 -139 -39v-220q0 -84 -72 -142q-82 -66 -225 -66q-112 0 -191 59q-78 57 -84 149v486q0 64 -20 94z" />
<glyph unicode="&#xe2a;" horiz-adv-x="823" d="M91 220q0 57 29.5 104.5t86.5 79.5q113 62 327 62h25l61 -4v44l1 62q0 92 -12.5 115t-27.5 35.5t-37 21.5q-44 18 -124 18q-127 0 -288 -86l-28 44q160 90 334 90q65 0 92.5 -8t35.5 -8q41 0 99.5 28t100.5 62l38 -44q-43 -37 -98 -54.5t-80 -24.5q45 -33 54 -83 q6 -38 5.5 -66.5t-2 -91t-1.5 -162.5v-172l2 -182h-64q0 17 -1 42t-1 60v192q0 65 2 121q-20 5 -53 5h-43q-265 0 -342 -117q-26 -37 -26 -82t14.5 -79t39.5 -57q53 -47 140 -47l30 2l10 -42q-32 -2 -68 -2t-70 9.5t-61 26t-46 38.5t-31 46q-23 47 -23 104z" />
<glyph unicode="&#xe2b;" horiz-adv-x="851" d="M122 788l64 18q4 -17 8 -32q9 -35 9 -56v-224q156 16 291 88q152 84 160 206l76 15q-3 -100 -93 -184q-29 -27 -65 -47q141 -18 141 -175v-397h-64v386q0 73 -17 98q-35 50 -116 50q-143 -65 -313 -87v-447h-64v642q0 84 -17 146z" />
<glyph unicode="&#xe2c;" horiz-adv-x="1074" d="M119 789l61 17q22 -59 22 -86v-526q0 -158 125 -158q76 0 127 64q52 65 52 160v262l64 12v-272q0 -153 79 -206q29 -20 69 -20t68 10t47 34q39 49 39 159v330q0 188 -166 188q-44 0 -128 -21l-14 47q74 23 164 23q157 0 262 95l42 -43q-72 -58 -116 -70t-78 -10 q98 -37 98 -191v-358q0 -144 -70 -197q-53 -41 -144 -41q-140 0 -191 137q-69 -138 -207 -138q-135 0 -174 112q-12 34 -12 76v522q0 40 -19 89z" />
<glyph unicode="&#xe2d;" horiz-adv-x="807" d="M64 694q80 85 228 111q40 7 99 7t123.5 -31t107.5 -87q87 -112 87 -301q0 -232 -133 -345q-75 -63 -185 -63q-132 0 -214 100q-77 94 -77 220q0 122 118 173q42 18 77 18h46q47 0 63 -4l-7 -50q-44 4 -77.5 4t-67.5 -11.5t-53 -32.5q-33 -38 -33 -105t18 -111t48 -78 q67 -78 159 -78q102 0 170 86q79 101 79 278q0 175 -78 274q-74 94 -210.5 94t-255.5 -107z" />
<glyph unicode="&#xe2e;" horiz-adv-x="809" d="M64 694q80 85 228 111q40 7 71 7t50 -2t39 -6q50 -10 80 -10q102 -4 202 80l39 -43q-103 -77 -215 -77q151 -115 151 -361q0 -232 -133 -345q-75 -63 -185 -63q-132 0 -214 100q-77 94 -77 220q0 122 118 173q42 18 77 18h46q47 0 63 -4l-7 -50q-48 3 -79.5 3 t-65.5 -11.5t-53 -33.5q-33 -37 -33 -124q0 -91 66 -168.5t159 -77.5q102 0 170 86q79 101 79 278q0 175 -78 275q-73 95 -209 95t-257 -109z" />
<glyph unicode="&#xe2f;" horiz-adv-x="821" d="M68 558.5q0 76.5 22.5 119t59.5 69.5q68 51 176 51h42l-16 -44q-103 16 -168 -44q-52 -48 -52 -106.5t14 -95t38 -62.5q50 -54 116 -54t114 16t88 42q73 47 118 118l-1 222l64 12v-802h-64v496q-120 -148 -305 -148q-109 0 -180 70q-66 64 -66 140.5z" />
<glyph unicode="&#xe30;" horiz-adv-x="497" d="M44 239l60 39q31 -77 88 -86q16 -2 32 -2q96 0 182 80l34 -36q-107 -92 -232 -96q-118 0 -164 101zM44 638l60 38q35 -88 123.5 -88t178.5 80l34 -36q-107 -92 -232 -96q-119 0 -164 102z" />
<glyph unicode="&#xe31;" d="M-591 1070l61 20q12 -60 54 -73q16 -5 42 -5h380l-18 -48h-378q-101 0 -128 67q-7 19 -13 39z" />
<glyph unicode="&#xe32;" horiz-adv-x="633" d="M44 704q139 100 258 100q192 0 192 -188v-616h-64v551q0 113 -17 145q-32 60 -129 60t-210 -90z" />
<glyph unicode="&#xe33;" horiz-adv-x="633" d="M-287 1043q0 48 25 73q43 43 90 43q46 0 72 -25q44 -42 44 -91t-25 -73q-44 -42 -91 -42q-48 0 -72 24q-43 43 -43 91zM-236 1042.5q0 -13.5 5 -24.5q17 -39 59 -39q43 0 59 39q5 12 5 25t-5 24.5t-14 20t-20 13.5t-25 5t-25 -5t-20 -13.5t-14 -20t-5 -25zM44 704 q139 100 258 100q192 0 192 -188v-616h-64v551q0 113 -17 145q-32 60 -129 60t-210 -90z" />
<glyph unicode="&#xe34;" d="M-733 964l23 48h572v-48h-595z" />
<glyph unicode="&#xe35;" d="M-734 964l24 48h508v140l64 11v-199h-596z" />
<glyph unicode="&#xe36;" d="M-733 964l23 48h396q-16 20 -16 45t8 43q14 35 42 47.5t48 12.5t38 -8t31 -21t21 -31t8 -38t-8 -38t-21 -32q-27 -28 -69 -28h-501zM-284 1062q0 -35 32 -48q10 -4 20 -4q33 0 46 32q4 10 4 20q0 32 -31 46q-9 4 -19 4q-34 0 -48 -31q-4 -9 -4 -19z" />
<glyph unicode="&#xe37;" d="M-733 964l23 48h346v137l65 11v-148h97v137l64 11v-196h-595z" />
<glyph unicode="&#xe38;" d="M-250 -153l26 57q86 -18 86 -102v-196h-64v182q0 42 -32 56q-9 3 -16 3z" />
<glyph unicode="&#xe39;" d="M-518 -144l32 48q36 -8 55 -24t19 -51v-53q0 -60 15 -82q28 -42 88 -42q50 0 69 19q38 36 38 115v101l64 13v-120q0 -72 -18.5 -101t-37.5 -43q-45 -30 -101.5 -30t-85.5 11t-50 30q-41 37 -45 111v40q0 46 -22 54q-8 2 -20 4z" />
<glyph unicode="&#xe3a;" d="M-214 -137q0 30 28 43q8 4 18 4q32 0 44 -29q3 -9 3 -18q0 -30 -29 -43q-8 -4 -18 -4q-29 0 -42 28q-4 9 -4 19z" />
<glyph unicode="&#xe3e;" />
<glyph unicode="&#xe3f;" horiz-adv-x="936" d="M148 0v1016h231v34l-1 80v34l64 15v-163q225 0 280 -133q20 -47 20 -97t-8 -88t-28 -71q-45 -74 -137 -94q111 -8 173 -85q55 -69 55 -165q0 -139 -76.5 -211t-222.5 -72h-55v-36l-1 -87v-36h-63l-1 159h-230zM214 50h165v454h-165v-454zM214 556h164v130l1 151v130h-165 v-411zM442 50h49q179 0 223 138q13 43 13 95q0 221 -277 221h-8v-454zM442 556h6q157 0 208 116q17 40 17 91t-10.5 84.5t-28.5 55.5t-41 34.5t-49 19.5q-37 10 -102 10v-411z" />
<glyph unicode="&#xe40;" horiz-adv-x="368" d="M152 140v649l64 12v-661q0 -54 8 -68q23 -40 80 -12l16 -42q-24 -22 -58 -23t-50 2t-29.5 19t-20.5 37q-10 34 -10 87z" />
<glyph unicode="&#xe41;" horiz-adv-x="653" d="M152 140v649l64 12v-661q0 -54 8 -68q23 -40 80 -12l16 -42q-24 -22 -58 -23t-50 2t-29.5 19t-20.5 37q-10 34 -10 87zM438 140v649l64 12v-661q0 -54 8 -68q23 -40 80 -12l16 -42q-24 -22 -58 -23t-50 2t-29.5 19t-20.5 37q-10 34 -10 87z" />
<glyph unicode="&#xe42;" horiz-adv-x="403" d="M-38 1025q46 95 160 125q37 10 75 10t67.5 -5t54.5 -13q32 -10 93 -38l-22 -44q-112 56 -205 56t-145 -80h-3q83 -53 112 -85q45 -49 59 -78q24 -48 24 -197v-536q0 -74 26 -87q27 -11 62 7l16 -42q-24 -21 -58 -22.5t-50 1.5t-30 19t-20 37q-10 35 -10 87v592 q0 92 -23 128q-46 87 -148 145q-23 13 -35 20z" />
<glyph unicode="&#xe43;" horiz-adv-x="406" d="M-72 1041q84 119 216 119q169 0 216 -150l-92 -156q-27 -54 -27 -142l1 -572v-26q0 -48 26 -61q27 -11 62 7l15 -42q-24 -21 -58 -22.5t-50 1.5t-29.5 19t-19.5 37q-10 31 -10 87l-1 556q0 91 13 126.5t24.5 55.5t20.5 35t18 31q24 41 41 72q-15 62 -92 89q-26 9 -58 9 q-104 0 -171 -103z" />
<glyph unicode="&#xe44;" horiz-adv-x="406" d="M-43 1114l27 44l137 -84q137 60 230 87l28 -44q-134 -206 -137 -324q-1 -19 -1 -37l1 -616v-26q0 -48 26 -61q27 -11 62 7l15 -42q-24 -21 -58 -22.5t-50 1.5t-29.5 19t-19.5 37q-10 31 -10 87l-1 614q0 80 15.5 123.5t26.5 66.5t20 40q39 77 61 108q-123 -46 -188 -78 q-32 23 -155 100z" />
<glyph unicode="&#xe45;" horiz-adv-x="633" d="M44 704q139 100 258 100q192 0 192 -188v-902l-64 -12v849q0 113 -17 146q-32 61 -128 61t-211 -92z" />
<glyph unicode="&#xe46;" horiz-adv-x="858" d="M94 528v55q0 122 118 181q38 20 89 28l123 -104l116 104q129 -29 168 -122q14 -32 14 -70v-600q0 -117 -14.5 -151t-31 -53.5t-36.5 -37.5q-37 -32 -93 -60l-21 39q81 48 99 78q33 54 33 145v617q0 70 -17 97q-31 50 -85 63l-132 -117l-139 118q-49 -4 -89 -47 q-38 -42 -38 -93v-77q0 -82 18 -111q35 -58 127 -58l27 2l8 -40h-10q-15 -3 -44 -3t-62 7.5t-55.5 21.5t-35.5 34t-21 44q-11 32 -16 110z" />
<glyph unicode="&#xe47;" d="M-640 1062q0 141 172 141h231q50 0 87 17l27 -42q-30 -18 -71 -18h-278q-66 0 -94 -45q-12 -19 -12 -39t2 -34t8 -28q15 -33 51 -35l119 87l68 -70q28 -28 48 -28q55 0 40 66q-2 8 -6 16l54 21q14 -28 14 -51.5t-4 -35.5t-11 -22q-16 -23 -35 -32.5t-38.5 -10.5t-36.5 4 q-33 10 -61 40l-38 39l-92 -72q-73 0 -112 42q-32 35 -32 90z" />
<glyph unicode="&#xe48;" d="M-200 1298v212l62 10v-222h-62z" />
<glyph unicode="&#xe49;" d="M-390 1346q54 27 54 73.5t-40 56.5l22 44q48 -10 68 -50q6 -12 6 -27.5t-1 -28.5q-3 -39 -33 -64q22 -1 38 -1l53 1h22q106 0 180 58l37 -42q-65 -47 -117.5 -56.5t-92.5 -11.5q-50 -3 -184 3z" />
<glyph unicode="&#xe4a;" d="M-438 1367q-30 64 24 117q28 29 80.5 29t81.5 -49q31 48 90 50q71 0 96 -52q7 -15 7 -36q0 -55 -43 -80q52 8 81 33t39 42l40 -33q-64 -89 -240 -89l-10 39q30 4 47 22q29 31 29 55q0 47 -44 51q-42 3 -67 -48q-7 -15 -8 -30h-37q-11 51 -44 71q-10 7 -27.5 7t-31 -14 t-14.5 -37q0 -67 76 -75l-11 -42q-86 7 -114 69z" />
<glyph unicode="&#xe4b;" d="M-332 1400v47h132v85l62 10v-95h132v-47h-132v-102h-62v102h-132z" />
<glyph unicode="&#xe4c;" d="M-200 1237q-38 109 15 168q33 37 93 65l18 -34q-74 -39 -74 -98v-20q0 -9 14 -58z" />
<glyph unicode="&#xe4d;" d="M-287 1043q0 48 25 73q43 43 90 43q46 0 72 -25q44 -42 44 -91t-25 -73q-44 -42 -91 -42q-48 0 -72 24q-43 43 -43 91zM-236 1042.5q0 -13.5 5 -24.5q17 -39 59 -39q43 0 59 39q5 12 5 25t-5 24.5t-14 20t-20 13.5t-25 5t-25 -5t-20 -13.5t-14 -20t-5 -25z" />
<glyph unicode="&#xe4e;" d="M-210 1000.5q0 14.5 4 32t12 32.5q19 35 52 46h-4q-9 31 -9 53.5t11.5 42t29.5 33.5q29 24 81 41l16 -31l-25 -8q-50 -17 -50 -62.5t15 -87.5q-55 -9 -69 -72q-4 -18 -2 -36l-61 -8q-1 10 -1 24.5z" />
<glyph unicode="&#xe4f;" horiz-adv-x="956" d="M64 398q0 56 14.5 109t41 98t64.5 83t83 64.5t98 41t109 14.5t109 -14.5t99 -41t83 -64.5t64 -83q57 -95 57 -207q0 -170 -121 -291t-291 -121q-166 0 -290 121q-120 117 -120 291zM122 398q0 -148 104 -250q104 -103 248 -103q147 0 250 103t103 250q0 144 -103 248 q-102 104 -250 104q-145 0 -248.5 -103.5t-103.5 -248.5zM268 398q0 42 16 80t44 66t66 44t80 16t80 -16t66 -44q61 -61 61 -146t-61 -146t-146 -61t-146 61q-60 60 -60 146zM321 398q0 -64 45 -109t108 -45q64 0 109 45t45 109q0 63 -45 108t-109 45q-63 0 -108 -45 t-45 -108z" />
<glyph unicode="&#xe50;" horiz-adv-x="991" d="M91 370.5q0 170.5 121.5 273t291.5 102.5t283 -107.5t113 -277.5q0 -235 -205 -331q-90 -42 -190 -42q-191 0 -302.5 106t-111.5 276.5zM158 363q0 -65 27 -129t73 -108q96 -90 237 -90t237 85q101 89 101 227q0 166 -97 259q-92 89 -245 89q-128 0 -229 -85 q-104 -88 -104 -248z" />
<glyph unicode="&#xe51;" horiz-adv-x="1011" d="M64 106l42 47q88 -76 230 -103q43 -8 105 -8t139 21t136 62q128 89 128 238q0 218 -170 299q-70 34 -154 34q-126 0 -222 -66q-104 -72 -104 -180q0 -103 92 -142q28 -13 64 -13l43 3l5 -45l-40 -2h-8q-158 0 -206 121q-15 39 -15 92t27.5 103.5t77.5 89.5q113 87 278 87 q273 -7 364 -198q36 -77 36 -156.5t-17.5 -132t-49 -95t-75.5 -74.5t-97 -53q-109 -43 -239 -43q-193 0 -370 114z" />
<glyph unicode="&#xe52;" horiz-adv-x="1014" d="M50 780l64 17q18 -67 18 -76v-355q0 -168 126 -254q107 -66 268 -66q154 0 248 66q109 84 109 212v199q0 93 -99 139q-37 18 -64 18l-113 -121l-122 123q-84 -9 -127 -87q-16 -29 -16 -72v-103q0 -65 18 -90q35 -51 117 -58l-13 -46q-186 0 -186 206v82q0 150 130 204 q42 18 96 22l103 -108l97 109q133 -10 204 -98q39 -49 39 -113v-198q0 -89 -27 -138q-46 -82 -103 -123q-110 -79 -292 -79q-157 0 -249 44q-76 39 -112 79t-56 77q-40 76 -40 162v334q0 38 -7 58t-11 34z" />
<glyph unicode="&#xe53;" horiz-adv-x="1011" d="M101 268v138q0 298 253 336l151 -136l148 136q117 -16 187 -82t70 -168v-272q0 -161 -96 -230l-40 44q72 56 72 188v270q0 74 -54 128q-44 44 -122 58l-166 -149l-168 150q-171 -28 -171 -262v-129q0 -151 51 -204q37 -38 102 -38l28 2l8 -49q-18 -3 -61 -3t-81 19.5 t-63 54.5q-48 69 -48 198z" />
<glyph unicode="&#xe54;" horiz-adv-x="1011" d="M73 302v112q0 230 200 299q67 23 157 23h394q43 0 107 16l14 -52q-48 -16 -75 -16h-448q-142 0 -218 -80q-67 -69 -67 -180v-116q0 -112 73 -182q76 -72 202 -72h168q-116 61 -116 178q-4 94 71 143q29 19 77 26l14 -47q-99 -14 -99 -116q0 -135 167 -184h182l-14 -54 h-462q-216 0 -296 168q-31 64 -31 134z" />
<glyph unicode="&#xe55;" horiz-adv-x="1011" d="M73 302v112q0 230 200 299q67 23 157 23h58q-16 26 -16 53t8 47q18 40 49 54t53 14q44 0 68 -24q42 -42 42 -80t-17 -64h149q43 0 107 16l14 -52q-48 -16 -75 -16h-448q-142 0 -218 -80q-67 -69 -67 -180v-116q0 -112 73 -182q76 -72 202 -72h168q-116 61 -116 178 q-4 94 71 143q29 19 77 26l14 -47q-99 -14 -99 -116q0 -135 167 -184h182l-14 -54h-462q-216 0 -296 168q-31 64 -31 134zM522 794q0 -38 36 -55q12 -5 24 -5q39 0 54 36q5 12 5 24q0 40 -36 54q-11 5 -23 5q-39 0 -55 -36q-5 -11 -5 -23z" />
<glyph unicode="&#xe56;" horiz-adv-x="1011" d="M68 768l48 32l97 -156q198 97 359 97q232 0 322 -195q38 -84 38 -155t-13 -119t-37 -91t-59 -78t-79 -60q-92 -52 -211.5 -53t-175 20.5t-85 42.5t-50.5 48q-46 57 -47.5 114t13 87.5t40.5 53.5q55 47 144 53l10 -51q-103 -9 -133 -79q-9 -21 -9 -50t12 -57t33 -49 t50 -35.5t61 -23.5q60 -18 119.5 -18t100 10t77.5 28.5t68.5 46t54.5 62.5q50 76 50 162t-24 147.5t-63 102.5q-77 81 -199 81q-188 0 -389 -118z" />
<glyph unicode="&#xe57;" horiz-adv-x="1011" d="M40 353q0 81 16 147t47 116q63 102 188 126l112 -104l116 105q171 -28 222 -221q19 -72 19 -141.5t-4 -108.5q-12 -138 -66 -214q109 26 166 117q48 78 48 187v346q0 33 3 81l67 -15q-7 -35 -7 -89v-319q0 -200 -119 -291q-78 -59 -196 -85l-41 48q83 108 83 322 q0 275 -160 323l-132 -119l-126 118q-138 -48 -160 -239q-7 -55 -7 -113q0 -281 167 -281l36 1l10 -48l-28 -2q-16 -2 -46.5 -2t-65 16t-59.5 43t-41 63t-25 76q-17 76 -17 157z" />
<glyph unicode="&#xe58;" horiz-adv-x="1011" d="M92 273v159q0 145 108 226q101 78 273 78h357q60 0 132 18l16 -52q-47 -19 -78 -19h-441q-132 0 -217 -66q-86 -67 -86 -162v-199q0 -94 55 -149q49 -49 120 -53l163 116l154 -116q60 -4 114 37q64 49 64 145q0 73 -11 100q-25 59 -95 66l13 48q145 -20 155 -174 q2 -22 2 -60t-18.5 -82t-52.5 -74q-71 -64 -189 -68l-136 106l-146 -106q-122 8 -192 89q-64 74 -64 192z" />
<glyph unicode="&#xe59;" horiz-adv-x="1011" d="M82 352.5q0 89.5 19 161.5t55 122q73 103 203 103q18 0 37.5 0.5t39.5 -2.5t40 -10q67 -24 116 -121q-6 130 116 130h137q48 0 76 24l27 -48q-36 -29 -78 -29l-139 1q-62 0 -77 -43q-12 -32 -12 -122l241 -497l-53 -28l-258 537q-57 109 -105 136q-30 17 -59 17h-50 q-82 0 -139 -70q-70 -84 -70 -258q0 -308 181 -308h29l8 -48q-18 -3 -59.5 -3t-77 16t-61 43t-42.5 62.5t-27 74.5q-18 70 -18 159.5z" />
<glyph unicode="&#xe5a;" horiz-adv-x="1065" d="M68 558.5q0 76.5 22.5 119t59.5 69.5q68 51 176 51h42l-16 -44q-103 16 -168 -44q-52 -48 -52 -106.5t14 -95t38 -62.5q50 -54 116 -54t113.5 16t86.5 42q74 47 119 118v222l64 12v-802h-64v496q-120 -148 -305 -148q-109 0 -180 70q-66 64 -66 140.5zM870 0v796l64 12 v-808h-64z" />
<glyph unicode="&#xe5b;" horiz-adv-x="1861" d="M97 372q0 153 95 256q101 110 258 110q199 0 266 -139q26 -54 26 -109t-14 -94.5t-41 -69.5q-59 -66 -155 -66h-40l10 51h14q68 0 115 41q49 44 49 108t-18 102.5t-48 65.5q-62 57 -136 57t-128 -22.5t-96 -64.5q-90 -90 -90 -236q0 -139 98 -228q96 -86 246 -86 q176 0 286 146q100 133 100 322v34l58 39q47 -47 96.5 -126t68.5 -109q12 22 29.5 47t35.5 51q21 30 72 94q66 -77 126 -182l66 114h250q14 0 62 16l14 -59q-60 -16 -70 -16l-227 1q-61 -105 -95 -166q-51 95 -126 196q-52 -65 -138 -210q-74 138 -162 258v-8 q0 -195 -110 -338q-125 -162 -342 -162q-192 0 -303 114q-102 106 -102 268z" />
<glyph unicode="&#x2000;" horiz-adv-x="771" />
<glyph unicode="&#x2001;" horiz-adv-x="1542" />
<glyph unicode="&#x2002;" horiz-adv-x="771" />
<glyph unicode="&#x2003;" horiz-adv-x="1542" />
<glyph unicode="&#x2004;" horiz-adv-x="514" />
<glyph unicode="&#x2005;" horiz-adv-x="385" />
<glyph unicode="&#x2006;" horiz-adv-x="257" />
<glyph unicode="&#x2007;" horiz-adv-x="257" />
<glyph unicode="&#x2008;" horiz-adv-x="192" />
<glyph unicode="&#x2009;" horiz-adv-x="308" />
<glyph unicode="&#x200a;" horiz-adv-x="85" />
<glyph unicode="&#x200b;" />
<glyph unicode="&#x2013;" horiz-adv-x="625" d="M0 345v53h624v-53h-624z" />
<glyph unicode="&#x2014;" horiz-adv-x="1522" d="M128 344v54h1270v-54h-1270z" />
<glyph unicode="&#x2018;" horiz-adv-x="383" d="M126 818.5q0 32.5 11 60t29 52.5q35 49 96 86l22 -29q-59 -40 -84 -104q-8 -21 -8 -41h8q42 0 59 -34q5 -10 5 -22q0 -36 -39 -51q-11 -5 -28 -5t-31 8.5t-23 21.5q-17 25 -17 57.5z" />
<glyph unicode="&#x2019;" horiz-adv-x="383" d="M104 756q87 58 91 144h-9q-40 0 -57 34q-5 10 -5 22q0 37 38 52q12 4 28 4t30 -8.5t23 -21.5q18 -28 18 -58.5t-11 -58.5q-29 -78 -124 -139z" />
<glyph unicode="&#x201c;" horiz-adv-x="674" d="M135 819q0 32 10.5 59.5t29.5 52.5q40 53 95 86l22 -29q-60 -40 -82 -104q-8 -21 -9 -41h9q40 0 57 -34q5 -10 5 -22q0 -37 -38 -51q-12 -5 -28 -5t-30 8.5t-23 21.5q-18 26 -18 58zM403 819q0 32 10.5 59.5t29.5 52.5q40 53 95 86l22 -29q-60 -40 -82 -104 q-8 -21 -9 -41h9q40 0 57 -34q5 -10 5 -22q0 -37 -38 -51q-12 -5 -28 -5t-30 8.5t-23 21.5q-18 26 -18 58z" />
<glyph unicode="&#x201d;" horiz-adv-x="674" d="M132 756q59 39 82 104q8 20 9 41h-9q-40 0 -57 34q-5 10 -5 22q0 37 38 51q12 5 28 5t30 -8.5t23 -21.5q18 -26 18 -58t-11 -59q-31 -82 -124 -139zM400 756q59 39 82 104q8 20 9 41h-9q-40 0 -57 34q-5 10 -5 22q0 37 38 51q12 5 28 5t30 -8.5t23 -21.5q18 -26 18 -58 t-11 -59q-31 -82 -124 -139z" />
<glyph unicode="&#x2022;" horiz-adv-x="624" d="M110 382q0 84 58 142q60 60 143 60q84 0 142 -60q59 -60 59 -142t-59 -142q-58 -60 -142 -60q-83 0 -143 60q-58 58 -58 142z" />
<glyph unicode="&#x202f;" horiz-adv-x="308" />
<glyph unicode="&#x205f;" horiz-adv-x="385" />
<glyph unicode="&#x20ac;" horiz-adv-x="874" d="M52 397v49h112q-2 28 -2 73t6 81h-116v48h124q36 158 128 262q101 114 233 114q109 0 184 -39q29 -15 63 -39l-40 -41q-95 73 -209 73q-102 0 -181 -96q-76 -92 -103 -234h389v-48h-398q-8 -61 -8 -93.5t4 -60.5h402v-49h-396q43 -259 197 -341q49 -26 106 -26 q115 0 193 70l42 -44q-89 -69 -188 -73q-24 -1 -42 -1h-9q-153 0 -255 126q-89 108 -119 289h-117z" />
<glyph unicode="&#xe000;" horiz-adv-x="742" d="M0 0v742h742v-742h-742z" />
<glyph unicode="&#xf700;" horiz-adv-x="753" d="M29 718q160 89 334 89q65 0 97 -11q47 -18 76 -11q71 17 140 80l40 -43q-48 -48 -158 -78q56 -39 56 -166v-359q0 -93 -20 -130t-42 -55q-49 -40 -136 -40q-6 0 -18 1t-25.5 2l-27 2t-25.5 3l-98 386q-15 54 -60 84l47 40q57 -40 71 -101l96 -368q8 -5 47 -3t64 16t39 38 q24 41 24 138v363q0 165 -206 165q-92 0 -218 -55q-35 -15 -63 -32z" />
<glyph unicode="&#xf701;" d="M-791 964l23 48h470v-48h-493z" />
<glyph unicode="&#xf702;" d="M-790 964l22 48h405v140l65 11v-199h-492z" />
<glyph unicode="&#xf703;" d="M-792 964l23 48h303q-17 21 -17 45.5t7.5 42.5t21.5 31q30 29 59.5 29t47.5 -8t31.5 -21t21 -31t7.5 -38t-7.5 -38t-21.5 -32q-28 -28 -69 -28h-407zM-436 1062q0 -34 31 -48q9 -4 20 -4q34 0 47 32q4 10 4 20q0 32 -31 46q-9 4 -20 4q-33 0 -47 -31q-4 -9 -4 -19z" />
<glyph unicode="&#xf704;" d="M-792 964l23 48h245v137l64 11v-148h97v137l65 11v-196h-494z" />
<glyph unicode="&#xf705;" d="M-426 966v212l62 10v-222h-62z" />
<glyph unicode="&#xf706;" d="M-686 1014q39 19 46.5 40.5t7.5 39.5q0 40 -40 50l22 44q47 -10 68 -51q6 -13 6 -29t-1 -28.5t-4 -23.5q-5 -18 -29 -38h113q98 0 167 52l38 -42q-62 -45 -110 -52.5t-88 -9.5q-61 -3 -184 2z" />
<glyph unicode="&#xf707;" d="M-751 1031q-28 66 23 117q29 29 81.5 29t81.5 -49q31 48 90 50q73 0 96 -52q7 -15 7 -36q0 -56 -43 -80q51 8 81 33t40 42l40 -33q-64 -89 -240 -89l-11 39q48 6 71 54q6 14 6 31t-12 29t-29 13.5t-30 -5t-23 -17.5q-22 -22 -26 -55h-37q-17 78 -70 78q-19 0 -33 -14 t-14 -37q0 -67 76 -75l-11 -42q-87 7 -114 69z" />
<glyph unicode="&#xf708;" d="M-624 1068v48h131v84l63 10v-94h132v-48h-132v-102h-63v102h-131z" />
<glyph unicode="&#xf709;" d="M-423.5 1035.5q-2.5 51.5 29.5 86t92 62.5l20 -40q-76 -41 -76 -87t16 -83l-68 -23q-11 33 -13.5 84.5z" />
<glyph unicode="&#xf70a;" d="M-200 966v212l62 10v-222h-62z" />
<glyph unicode="&#xf70b;" d="M-490 1018q58 26 58 77.5t-44 62.5l24 48q53 -11 74 -54q6 -14 6 -31.5t-0.5 -31t-3.5 -25.5q-8 -23 -32 -42h122q107 0 188 59l40 -46q-69 -52 -148 -63q-80 -11 -272 -4z" />
<glyph unicode="&#xf70c;" d="M-632 1096q2 44 25 66q40 38 95.5 38t87.5 -52q32 49 96 54q77 0 104 -56q8 -16 8 -39q0 -57 -47 -85q55 8 87 35t43 45l43 -36q-72 -96 -258 -96l-12 42q54 7 76 57q6 15 6 34q0 43 -47 47q-47 3 -72 -52q-7 -16 -9 -32h-40q-16 84 -74 84q-20 0 -35 -15t-15 -40 q0 -73 81 -81l-13 -45q-56 4 -84 28q-50 43 -46 99z" />
<glyph unicode="&#xf70d;" d="M-332 1068v48h132v84l62 10v-94h132v-48h-132v-102h-62v102h-132z" />
<glyph unicode="&#xf70e;" d="M-213.5 1035.5q-2.5 51.5 29.5 86t92 62.5l20 -37q-76 -41 -76 -88.5t16 -84.5l-68 -23q-11 33 -13.5 84.5z" />
<glyph unicode="&#xf70f;" horiz-adv-x="1258" d="M105 692q163 116 356 116q196 0 242 -122q17 -40 17 -152v-324q0 -83 26 -116q47 -58 136 -58q175 0 175 174v580l64 12v-612q0 -146 -143 -188q-46 -13 -102 -13t-96.5 14t-67.5 39q-56 52 -56 147v361q0 80 -11 110t-25 46q-50 52 -174 52q-85 0 -206 -50 q-34 -14 -60 -28q44 -70 44 -126v-390q0 -68 19 -87q32 -33 113 -37l7 -47q-8 -1 -15 -1h-10q-178 0 -178 148v422q0 37 -20 72z" />
<glyph unicode="&#xf710;" d="M-591 1070l61 20q12 -60 54 -73q16 -5 42 -5h380l-18 -48h-378q-101 0 -128 67q-7 19 -13 39z" />
<glyph unicode="&#xf711;" d="M-542 1043q0 74 71 107q21 9 45 9q47 0 72 -25q44 -44 44 -91t-25 -72q-43 -43 -91 -43q-47 0 -73 24q-43 42 -43 91zM-490 1042.5q0 -13.5 5 -25t13 -19.5q19 -19 39 -19t31.5 5t20 13.5t13.5 20.5t5 25t-5 24.5t-14 20.5q-18 18 -38 18t-31.5 -5t-20 -13.5t-13.5 -20 t-5 -25z" />
<glyph unicode="&#xf712;" d="M-744 1060q0 143 172 143h194q49 0 87 17l27 -42q-30 -18 -70 -18h-242q-66 0 -94 -45q-12 -19 -12 -39t2 -34q4 -30 22 -46t38 -18l102 88l72 -72q25 -25 42 -25q46 0 31 65q-2 8 -6 16l55 21q14 -28 14 -53q2 -54 -50 -82q-42 -22 -76.5 -4.5t-47.5 30.5l-38 38 l-78 -70q-109 0 -136 83q-8 23 -8 47z" />
<glyph unicode="&#xf713;" d="M-360 1298v212l63 10v-221z" />
<glyph unicode="&#xf714;" d="M-525 1346q55 28 55 74t-42 56l23 44q49 -10 67 -50q6 -12 6 -28.5v-29.5q-2 -35 -34 -62q22 -1 38 -1l54 1h22q103 0 180 58l38 -42q-64 -46 -117 -56q-83 -16 -157 -13.5t-122 4.5z" />
<glyph unicode="&#xf715;" d="M-596 1367q-29 66 24 117q30 29 81.5 29t80.5 -49q31 48 90 50q69 0 96 -52q8 -15 8 -36q0 -55 -44 -80q51 8 81 33t40 42l40 -33q-64 -89 -241 -89l-10 39q30 4 47 22q29 31 29 55q0 47 -44 51q-43 3 -66 -48q-6 -15 -8 -30h-38q-17 78 -70 78q-19 0 -32.5 -14 t-13.5 -37q0 -67 76 -75l-12 -42q-85 7 -114 69z" />
<glyph unicode="&#xf716;" d="M-490 1400v47h130v85l63 10v-95h133v-47h-133v-102h-63v102h-130z" />
<glyph unicode="&#xf717;" d="M-379 1325q-2 88 123 145l18 -36q-74 -39 -74 -96v-18q0 -11 14 -60l-66 -23q-14 40 -15 88z" />
<glyph unicode="&#xf718;" d="M-250 -422l26 57q86 -18 86 -101v-196h-64v182q0 26 -12 39q-18 19 -36 19z" />
<glyph unicode="&#xf719;" d="M-518 -402l32 47q36 -8 55 -24.5t19 -50.5v-53q0 -91 50 -114q20 -9 47.5 -9t46.5 5t34 19q32 31 32 109v101l64 13v-120q0 -71 -18.5 -100t-37.5 -43q-42 -30 -100 -30t-87 10.5t-50 29.5q-41 38 -45 111v40q0 46 -22 54q-8 3 -20 5z" />
<glyph unicode="&#xf71a;" d="M-214 -413q0 30 28 43q8 4 18 4q32 0 44 -29q3 -9 3 -18q0 -30 -29 -43q-8 -4 -18 -4q-29 0 -42 28q-4 9 -4 19z" />
<glyph unicode="&#xf71d;" horiz-adv-x="1071" d="M119 789l61 17q22 -59 22 -86v-526q0 -158 125 -158q76 0 127 64q52 65 52 160v262l64 12v-272q0 -153 79 -206q29 -20 69 -20t68 10t47 34q39 49 39 159v330q0 188 -166 188q-44 0 -128 -21l-14 47q74 23 164 23q157 0 262 95l42 -43q-72 -58 -116 -70t-78 -10 q98 -37 98 -191v-358q0 -144 -70 -197q-53 -41 -144 -41q-140 0 -191 137q-69 -138 -207 -138q-135 0 -174 112q-12 34 -12 76v522q0 40 -19 89z" />
<glyph unicode="&#xf881;" horiz-adv-x="1431" d="M106 682q185 126 374 126q239 0 268 -148q9 -43 9 -112v-830l-64 -16v826q0 106 -11 135.5t-27.5 47.5t-42.5 29q-50 21 -119 21t-110 -9q-122 -27 -201 -84q43 -60 43 -124l-1 -366q0 -75 24 -100q40 -39 124 -41l6 -41h-40q-125 0 -164 86q-13 30 -13 72v378 q0 57 -7.5 72.5t-13.5 27.5zM843 704q139 100 258 100q192 0 192 -188v-902l-64 -12v849q0 113 -17 145q-33 60 -129 60q-70 0 -165 -60q-26 -16 -45 -32z" />
<glyph unicode="&#xf882;" horiz-adv-x="1431" d="M80 40h14q30 0 53 13t31 28q13 22 13 89v350q0 58 -30 101q-9 13 -19 27l-36 44q167 114 372 114t260 -121q15 -42 15 -126v-843l-65 -13l1 829q0 110 -12.5 136t-30.5 42t-43 27q-52 23 -129 23q-146 0 -290 -76q71 -89 71 -143v-413q0 -121 -137 -130h-32zM843 704 q139 100 258 100q192 0 192 -188v-902l-64 -12v849q0 113 -17 145q-33 60 -129 60q-70 0 -165 -60q-26 -16 -45 -32z" />
</font>
</defs>
</svg>
