<?xml version="1.0" standalone="no"?>
<!DOCTYPE svg PUBLIC "-//W3C//DTD SVG 1.1//EN" "http://www.w3.org/Graphics/SVG/1.1/DTD/svg11.dtd" >
<svg xmlns="http://www.w3.org/2000/svg">
<metadata></metadata>
<defs>
<font id="DBMomentXRegular" horiz-adv-x="0" >
<font-face units-per-em="2048" ascent="1638" descent="-410" />
<missing-glyph horiz-adv-x="399" />
<glyph unicode="&#x2e;&#x2e;&#x2e;" horiz-adv-x="1016" d="M68 83q0 21 7 38.5t21 30.5q29 28 59.5 28t48.5 -7.5t32 -20.5q28 -27 28 -58.5t-7.5 -50t-20.5 -31.5q-47 -49 -108 -22q-60 27 -60 93zM406 83q0 21 7.5 38.5t21 30.5t31.5 20.5t38 7.5t38.5 -7.5t31.5 -20.5q30 -28 30 -59t-8 -49.5t-21 -31.5q-28 -30 -69 -30 q-39 0 -61.5 21.5t-30.5 40t-8 39.5zM748 83q0 21 7 38.5t20 30.5q28 28 58.5 28t49 -7.5t31.5 -20.5q30 -28 30 -59t-8 -49.5t-21 -31.5q-47 -49 -107 -22t-60 93z" />
<glyph unicode="&#xe4f;&#x22;" horiz-adv-x="830" d="M64 388q0 49 12.5 94.5t35.5 84.5t55.5 71.5t71.5 55.5q81 48 178 48q146 0 249.5 -103.5t103.5 -249.5t-103.5 -249.5t-249.5 -103.5t-249.5 103.5t-103.5 248.5zM155 389q0 -108 77 -185t185 -77t185 77t77 185t-77 185t-185 77t-185 -77t-77 -185zM236 389 q0 75 53 128t128 53t128 -53t53 -128t-53 -128t-128 -53t-128 53t-53 128zM242 807v317l115 24v-341h-115zM318 389q0 -64 60 -91q18 -8 39 -8q64 0 91 60q8 18 8 39q0 64 -60 91q-18 8 -39 8q-65 0 -91 -60q-8 -19 -8 -39zM476 807v317l114 24v-341h-114z" />
<glyph />
<glyph horiz-adv-x="2048" />
<glyph unicode="&#xd;" horiz-adv-x="452" />
<glyph unicode=" "  horiz-adv-x="399" />
<glyph unicode="&#x09;" horiz-adv-x="399" />
<glyph unicode="&#xa0;" horiz-adv-x="399" />
<glyph unicode="!" horiz-adv-x="590" d="M205 75q0 30 6.5 46.5t18.5 28t28.5 18t36.5 6.5t36.5 -6.5t28.5 -18t19 -27.5t7 -35t-7 -36.5t-19 -30.5q-25 -26 -55 -26t-46.5 7t-28.5 19q-25 25 -25 55zM220 1018l147 18l-27 -743h-92z" />
<glyph unicode="&#x22;" horiz-adv-x="770" d="M223 692v365h109v-342zM438 692v365h109v-342z" />
<glyph unicode="#" horiz-adv-x="893" d="M72 314l16 102h152l28 219h-152l17 103h151l44 308h108l-45 -308h185l42 308h107l-43 -308h152l-13 -103h-153l-33 -219h155l-12 -102h-156l-44 -314h-107l43 314h-180l-45 -314h-109l46 314h-154zM348 416h182l31 219h-182z" />
<glyph unicode="$" horiz-adv-x="827" d="M56 80l69 92q109 -78 241 -82v394q-216 54 -266 194q-12 34 -12 82t22 96q45 98 148 149q50 25 108 35v116l93 20v-134q152 -9 279 -104l-54 -84q-106 77 -225 86v-352q215 -70 271 -190q22 -46 22 -101.5t-23.5 -105t-63.5 -90.5q-87 -89 -206 -109v-144h-93v140 q-170 4 -310 92zM221 779q0 -29 11 -52q29 -65 134 -111v320q-101 -18 -134 -102q-11 -26 -11 -55zM459 96q63 11 110 65q43 49 43 112q0 124 -153 181v-358z" />
<glyph unicode="%" horiz-adv-x="1253" d="M53 770q0 58 16.5 105t47.5 79q64 68 176 68q183 0 231 -156q14 -47 14 -103.5t-17 -102.5t-49 -78q-66 -68 -177 -68q-110 0 -177 70q-65 69 -65 186zM158 782q0 -137 75 -170q27 -12 62.5 -12t60.5 10.5t43 30.5q37 41 37 115q0 182 -143 182q-135 0 -135 -156zM346 41 l486 983l84 -35l-484 -989zM708 240q0 58 17 105t49 80q67 69 178 69q120 0 186 -74q60 -69 60 -186q0 -113 -66 -180q-66 -68 -180 -68q-169 0 -226 149q-18 47 -18 105zM813 254q0 -184 143 -184q97 0 128 91q10 29 10 67q0 180 -144 180q-102 0 -128 -90q-9 -29 -9 -64z " />
<glyph unicode="&#x26;" horiz-adv-x="1022" d="M88 260q0 131 116 208q38 24 87 46q-139 129 -139 247q0 99 82 161q77 57 190 57q198 0 260 -123q20 -40 20 -90t-13 -86.5t-39 -67.5q-52 -62 -164 -110l231 -226q33 69 33 183l104 31q0 -165 -32 -245q-10 -25 -21 -49l133 -132l-82 -82l-119 118q-67 -82 -209 -108 q-44 -8 -105.5 -8t-126 19.5t-110.5 56.5q-96 76 -96 200zM217 250q0 -77 63 -124q63 -48 162 -48q107 0 188 56q24 17 38 36l-298 282q-153 -81 -153 -202zM278 769q0 -31 8 -53q16 -43 54 -78.5t74 -69.5q144 64 167 144q7 24 7 51t-12 51t-34 40q-46 35 -118 35 q-95 0 -132 -65q-14 -24 -14 -55z" />
<glyph unicode="'" horiz-adv-x="415" d="M156 688v364h108v-342z" />
<glyph unicode="(" horiz-adv-x="514" d="M88 482q0 515 352 665l31 -61q-157 -93 -215 -254q-36 -101 -42 -191.5t-6 -153.5t4 -125.5t14 -123.5t29 -118.5t49 -109.5q64 -109 173 -172l-37 -61q-352 141 -352 705z" />
<glyph unicode=")" horiz-adv-x="510" d="M35 -162q241 141 263 524q3 62 3 125t-3.5 123t-14 115.5t-29 106t-46.5 96.5q-59 92 -167 158l29 61q127 -52 212 -163q140 -182 140 -502q0 -444 -229 -634q-53 -44 -123 -71z" />
<glyph unicode="*" horiz-adv-x="667" d="M45 817l29 91l215 -74v220h94v-220l215 74l28 -89l-212 -73l137 -185l-78 -59l-137 188l-136 -190l-77 61l135 185z" />
<glyph unicode="+" horiz-adv-x="753" d="M56 318v110h266v266h110v-266h266v-110h-266v-267h-110v267h-266z" />
<glyph unicode="," horiz-adv-x="397" d="M88 83.5q0 21.5 8 41t22 34.5q29 31 65 31t58 -10t37 -30q34 -42 34 -93.5t-15 -90t-41 -70.5q-54 -67 -133 -105l-35 63q85 41 98 134l-16 -2q-54 0 -76 58q-6 18 -6 39.5z" />
<glyph unicode="-" horiz-adv-x="745" d="M142 318v110h482v-110h-482z" />
<glyph unicode="." horiz-adv-x="401" d="M100 87.5q0 21.5 8 38.5q24 58 90 58q69 0 94 -58q7 -17 7 -38.5t-7.5 -40.5t-19.5 -33q-27 -28 -59 -28t-51 7.5t-32.5 21t-21.5 32.5t-8 40.5z" />
<glyph unicode="/" horiz-adv-x="665" d="M78 -231l382 1309h113l-377 -1309h-118z" />
<glyph unicode="0" horiz-adv-x="838" d="M40 539q0 95 28 191q56 192 198 266q70 36 143.5 36t127 -21t95.5 -58t73 -88t52 -111q41 -117 41 -262q0 -200 -93 -347q-103 -163 -283 -163q-178 0 -284 164q-98 150 -98 393zM178 565.5q0 -73.5 4 -124.5t15 -101t29 -97t46 -83q61 -78 156 -78q153 0 210 210 q22 81 22 154t-4 123.5t-14 100.5t-27 97t-44 83q-60 78 -153 78q-160 0 -218 -210q-22 -79 -22 -152.5z" />
<glyph unicode="1" horiz-adv-x="838" d="M154 842q59 27 105 61q95 69 147 112l95 1v-916h207l-22 -100h-513v100h201v760q-80 -51 -194 -89z" />
<glyph unicode="2" horiz-adv-x="839" d="M96 0v92q144 127 232 225q149 165 183.5 211t53.5 78t30 61q21 55 21 97.5t-14.5 72t-39.5 49.5q-54 42 -134 42q-130 0 -268 -121l-50 80q159 141 353 141q113 0 194 -61q93 -70 93 -197q0 -178 -205 -380q-60 -60 -152.5 -149t-150.5 -145l140 4h372l-23 -100h-635z " />
<glyph unicode="3" horiz-adv-x="839" d="M99 86q63 -20 149 -20t152 19t111 51q92 65 92 169q0 97 -80 152q-79 55 -226 55h-41l24 84h58l48 2q113 0 165 66q35 44 35 94.5t-14.5 79t-39.5 48.5q-53 44 -130 44q-118 0 -249 -94l-45 80q141 112 318 112q133 0 212 -65.5t81 -174.5q0 -139 -97 -206 q-32 -22 -73 -33q96 -27 149 -101q48 -64 47.5 -137.5t-19.5 -121t-51 -83.5t-75 -62q-160 -95 -465 -50z" />
<glyph unicode="4" horiz-adv-x="839" d="M92 230v88l357 698h127l-260 -518q-13 -25 -23.5 -44.5t-17.5 -34t-20 -38t-32 -59.5l76 4h259v102l2 146q0 22 1 36l8 160l107 31v-415q0 -40 -2 -60q14 0 26.5 1t23.5 1h79l-25 -98h-67t-37 2q0 -12 1 -26l1 -40v-156l-120 -32v172l2 48v34q-20 0 -35 -1t-30 -1h-401z " />
<glyph unicode="5" horiz-adv-x="839" d="M118 101q57 -23 131.5 -23t136.5 19t106 54q94 75 94 199q0 106 -72 158q-58 42 -164 42q-123 0 -208 -32l61 495h473l-18 -109h-344l-32 -262q63 7 111 7q322 0 322 -299q0 -227 -220 -324q-97 -42 -221 -42q-76 0 -132 16z" />
<glyph unicode="6" horiz-adv-x="839" d="M90 366q0 308 213 500q103 93 275 145q16 5 26 7l28 -82q-30 -7 -73 -25.5t-74 -34.5t-75 -51t-78 -77q-65 -81 -98 -193q89 75 216 75q135 0 217 -92q83 -94 83 -237q0 -136 -94 -227q-94 -90 -234 -90q-156 0 -245 104q-87 103 -87 278zM222 374.5q0 -32.5 4 -65.5 t12.5 -66.5t23 -64.5t36.5 -54q48 -52 109 -52t97 16t61 46q53 64 53 163q0 171 -101 227q-36 20 -87 20q-103 0 -204 -79q-2 -14 -3 -36t-1 -54.5z" />
<glyph unicode="7" horiz-adv-x="839" d="M82 911l26 103h688l-28 -115q-149 -172 -204.5 -248.5t-100.5 -149.5t-78 -152q-71 -170 -71 -337l-152 -32q8 394 390 821q54 61 103 114q-60 -4 -104 -4h-469z" />
<glyph unicode="8" horiz-adv-x="839" d="M74 264q0 153 176 248q26 14 49 22q-120 58 -159 166q-13 35 -13 81.5t20.5 93.5t60.5 81q87 74 228 74q123 0 204 -67q79 -65 79 -169q0 -153 -205 -249l84 -41q75 -38 124 -104q44 -60 44 -115q0 -187 -164 -265q-76 -36 -171 -36t-159 21.5t-108 58.5q-90 77 -90 200z M206 271q0 -43 15 -80.5t44 -64.5q62 -56 163 -56q88 0 147 53q60 54 60 130q0 36 -10.5 61.5t-28.5 47t-42 40.5q-42 33 -88 53.5t-73 32.5q-123 -53 -169 -140q-18 -34 -18 -77zM259 782q0 -57 19 -88q42 -67 144 -106q170 76 170 196q0 73 -46 117q-44 42 -124 42 q-72 0 -118 -47q-45 -47 -45 -114z" />
<glyph unicode="9" horiz-adv-x="838" d="M90 713q0 136 94 227q94 90 234 90q156 0 244 -104q88 -106 88 -278q0 -197 -95 -357q-133 -223 -419 -295l-30 82q53 12 116.5 44t107 67t76.5 77q66 82 98 193q-89 -75 -215 -75q-135 0 -217 92q-82 91 -82 237zM222 717q0 -172 100 -227q37 -20 90 -20q99 0 200 79 l4 93q0 226 -128 286q-30 14 -73 14t-79 -16t-62 -46q-52 -60 -52 -163z" />
<glyph unicode=":" horiz-adv-x="446" d="M127 81.5q0 20.5 7.5 38.5t20.5 32q27 28 59 28t49 -7.5t30 -20.5q29 -29 29 -59.5t-8 -48.5t-21 -31q-27 -27 -58.5 -27t-49.5 7t-30.5 20t-20 30.5t-7.5 38zM127 580.5q0 20.5 7.5 38t20.5 31.5q27 28 59 28t49 -7t30 -20t21 -31t8 -38t-8 -38t-21 -32 q-27 -28 -57.5 -28t-49 7t-31.5 20t-20.5 31t-7.5 38.5z" />
<glyph unicode=";" horiz-adv-x="446" d="M116 70.5q0 29.5 8.5 48.5t23.5 33q31 30 65 30t55.5 -10t36.5 -28q33 -41 33 -92t-15 -89t-41 -71q-51 -65 -136 -105l-30 67q89 45 99 132q-3 0 -5 -2h-17t-26 7t-26 20q-25 30 -25 59.5zM119 583q0 21 7.5 37t19.5 29q26 27 69 27q63 0 91 -59q8 -17 8 -37 q0 -64 -58 -92q-18 -9 -38.5 -9t-39 8.5t-31.5 22.5t-20.5 33t-7.5 40z" />
<glyph unicode="&#x3c;" horiz-adv-x="682" d="M62 307v97l550 254v-116l-418 -182l92 -26l326 -119v-113z" />
<glyph unicode="=" horiz-adv-x="989" d="M108 280v103h772v-103h-772zM108 510v102h772v-102h-772z" />
<glyph unicode="&#x3e;" horiz-adv-x="682" d="M62 102v113l325 119l92 26l-417 182v116l550 -254v-97z" />
<glyph unicode="?" horiz-adv-x="725" d="M114 910q129 120 274 120q162 0 217 -134q48 -117 -21 -234q-26 -46 -64 -78t-58 -56t-36 -51q-34 -57 -34 -102t8 -85l-98 -24q-12 52 -12 92.5t6 72t20 64.5q29 68 93 132q71 71 84 105t13 64t-12 56t-31 42q-36 32 -97 32q-112 0 -190 -89zM264 85.5q0 21.5 7 39.5 t20 31q26 28 71 28q43 0 65 -20q35 -34 35 -67t-7 -52t-21 -33q-28 -28 -60 -28t-50 7.5t-31.5 21t-21 32.5t-7.5 40.5z" />
<glyph unicode="@" horiz-adv-x="1194" d="M66 524q0 76 20 147t56 132.5t87 111.5t113 85q130 75 280 75q210 0 352 -125q148 -130 148 -324q0 -187 -122 -314q-71 -75 -153 -104q-39 -14 -65 -14t-43 6t-30 17q-29 25 -33 69q-87 -92 -184 -92q-93 0 -153 73q-57 70 -57 169q0 161 94 283q98 127 250 127 q118 0 168 -117l30 109l96 -21l-126 -419q-12 -44 -12 -66q0 -35 33 -35q72 0 138 99q67 100 67 222q0 222 -204 329q-90 47 -174 47t-142 -17.5t-108 -49t-92 -74.5t-71 -95q-61 -109 -61 -234q0 -194 134 -330q133 -134 316 -134q169 0 297 100q41 32 72 72h101 q-107 -184 -329 -239q-69 -17 -144 -17t-146 19t-132.5 54.5t-111.5 85t-85.5 110.5t-54.5 132t-19 147zM391 448q0 -61 27 -94q48 -57 90 -57t72 14.5t56 39.5q67 65 95 195q7 32 7 68q-5 130 -112 130q-98 0 -169 -98q-66 -91 -66 -198z" />
<glyph unicode="A" horiz-adv-x="858" d="M8 0l338 1016h168l338 -1016h-144l-100 330h-370l-103 -330h-127zM270 430h310l-152 471z" />
<glyph unicode="B" horiz-adv-x="887" d="M135 0v1016h267q217 0 297 -88q55 -61 55 -162q0 -114 -99 -190q-31 -24 -71 -38q159 -32 206 -154q17 -44 17 -110t-27.5 -120.5t-74.5 -88.5q-90 -65 -240 -65h-330zM260 102h213q205 0 205 195q0 149 -149 172q-45 7 -97 8h-172v-375zM260 582h170q188 0 188 168 q0 133 -120 154q-34 6 -70 6h-168v-328z" />
<glyph unicode="C" horiz-adv-x="862" d="M74 506q0 228 126 374q130 148 320 148q162 0 264 -80l-53 -94q-92 74 -213 74q-213 0 -281 -237q-26 -91 -26 -170t7.5 -127t24.5 -92t43 -83q87 -131 238 -131t252 94l50 -94q-120 -104 -306 -104q-208 0 -332 162q-114 148 -114 360z" />
<glyph unicode="D" horiz-adv-x="940" d="M135 0v1016h250q453 0 453 -510q0 -406 -284 -488q-62 -18 -140 -18h-279zM260 104h121q257 0 305 224q16 72 16 146t-5.5 126.5t-19.5 99t-37.5 85.5t-59.5 67q-75 58 -199 62h-121v-810z" />
<glyph unicode="E" horiz-adv-x="776" d="M135 0v1016h589l-28 -104h-436v-324h360v-109h-360v-371h465v-108h-590z" />
<glyph unicode="F" horiz-adv-x="781" d="M135 0v1016h589l-28 -104h-436v-324h360v-109h-360v-479h-125z" />
<glyph unicode="G" horiz-adv-x="925" d="M80 506q0 320 184 450q99 70 248 70q163 0 284 -100l-42 -92q-111 92 -238 92q-213 0 -278 -219q-25 -84 -25 -205q0 -414 307 -414q100 0 166 41v315h-242l29 105h332v-487q-121 -78 -295 -78q-210 0 -324 150q-106 140 -106 372z" />
<glyph unicode="H" horiz-adv-x="958" d="M135 0v1016h125v-428h438v428h126v-1016h-126v486h-438v-486h-125z" />
<glyph unicode="I" horiz-adv-x="395" d="M135 0v1016h125v-1016h-125z" />
<glyph unicode="J" horiz-adv-x="401" d="M-45 -114q106 28 145 86q40 59 44 190v854h124v-852q0 -159 -52 -237q-59 -89 -208 -127z" />
<glyph unicode="K" horiz-adv-x="837" d="M123 0v1016h125v-1016h-125zM250 555l374 461h160l-391 -461l431 -533l-130 -42z" />
<glyph unicode="L" horiz-adv-x="733" d="M135 0v1016h125v-912h438l-36 -104h-527z" />
<glyph unicode="M" horiz-adv-x="1179" d="M96 0l84 1016h180l174 -608q13 -46 17.5 -67t9.5 -41q9 -36 27 -124q10 43 16 73t11 49.5t9 38.5q7 31 19 71l178 608h181l82 -1016h-126l-46 676q-1 14 -2.5 31t-2.5 35t-2 37q-1 22 -8 120q-8 -33 -15.5 -60.5t-12.5 -49.5t-11 -43t-10 -39.5t-8 -30.5l-201 -676h-107 l-196 678q-11 34 -19.5 73t-17.5 74t-21 93q-14 -196 -14 -242l-47 -676h-121z" />
<glyph unicode="N" horiz-adv-x="956" d="M135 0v1016h143l322 -604q10 -19 20 -39.5t20 -40.5q13 -23 35.5 -71t41.5 -87q-17 119 -17 320v522h126v-1016h-132l-311 578q-36 82 -137 270q0 -6 1.5 -22.5t3 -40t3.5 -52.5t3 -61q3 -94 3 -127v-545h-125z" />
<glyph unicode="O" horiz-adv-x="983" d="M82 539q0 95 28 191t81 163q110 139 297 139q276 0 373 -278q40 -114 40 -262q0 -205 -93 -347q-106 -163 -312 -163q-207 0 -316 164q-98 146 -98 393zM217 536q0 -458 285 -458q262 0 262 397q0 271 -92 379q-66 78 -184 78q-271 0 -271 -396z" />
<glyph unicode="P" horiz-adv-x="807" d="M135 0v1016h297q235 0 312 -154q28 -56 28 -135t-21 -139q-64 -184 -303 -184h-188v-404h-125zM260 504h176q142 0 190 113q15 37 15 90.5t-17.5 93t-49.5 63.5q-55 42 -181 46h-133v-406z" />
<glyph unicode="Q" horiz-adv-x="989" d="M82 505q0 129 28 225q55 193 206 266q76 36 160.5 36t144 -21t105.5 -58t79 -88t54 -111q40 -114 40 -262q0 -233 -109 -372q-40 -52 -100 -85q41 -7 86 -41q92 -70 156 -70q10 0 20 2t21 4l-37 -110q-8 -2 -15 -2h-13q-61 0 -152 60q-64 40 -87.5 56t-44.5 26 q-41 18 -106 22h-36q-262 7 -359 279q-41 115 -41 244zM217 568q0 -79 3.5 -131.5t13.5 -103.5t29 -97.5t51 -81.5q68 -78 186 -78q262 0 262 399q0 459 -276 459q-191 0 -248 -210q-21 -77 -21 -156z" />
<glyph unicode="R" horiz-adv-x="825" d="M135 0v1016h269q258 0 318 -184q13 -42 13 -101t-19.5 -110t-55.5 -88q-75 -77 -201 -77q35 -25 61 -60.5t34.5 -47t22 -31t29.5 -44.5q53 -79 73 -109l93 -140l-135 -34q-49 127 -262 401q-50 61 -115 65v-456h-125zM260 536h123q163 0 205 104q16 40 16 92t-16 84 t-43 53q-50 39 -143 43h-142v-376z" />
<glyph unicode="S" horiz-adv-x="827" d="M68 76l52 91q121 -83 257 -83q149 0 204 101q19 35 19 78t-7.5 70.5t-26.5 48.5q-38 40 -138 73l-108 37q-104 36 -148 75q-86 76 -86 179q0 128 88 206q87 78 236 78q155 0 288 -102l-51 -85q-117 85 -231 85q-140 0 -182 -93q-13 -29 -13 -65t8.5 -60.5t27.5 -43.5 q32 -31 126 -64l131 -45q167 -58 208 -171q16 -42 16 -105t-28 -119t-76 -96q-101 -84 -257 -84q-164 0 -309 94z" />
<glyph unicode="T" horiz-adv-x="764" d="M39 912v104h696l-29 -104h-262v-912h-124v912h-281z" />
<glyph unicode="U" horiz-adv-x="936" d="M131 286v730h125v-725q0 -101 42 -147q50 -56 169 -56q213 0 213 205v723h125v-721q0 -247 -193 -295q-64 -16 -151 -16q-326 0 -330 302z" />
<glyph unicode="V" horiz-adv-x="858" d="M24 1000l124 28l208 -632q10 -33 22 -72t22 -74q20 -70 26 -100q30 122 72 243l206 623h128l-348 -1016h-126z" />
<glyph unicode="W" horiz-adv-x="1224" d="M45 1006l129 22l131 -620l9 -42q20 -102 36 -237q3 16 10 47.5t15.5 70.5t18.5 81t18 80l135 608h135l135 -608q12 -58 23 -109q20 -86 38 -172q2 14 7 42.5t11 65.5q14 88 32 173l126 608h124l-224 -1016h-162l-140 608q-25 111 -40 222q-5 -26 -14.5 -83t-25.5 -137 l-138 -610h-160z" />
<glyph unicode="X" horiz-adv-x="811" d="M8 0l304 538l-261 470l133 20l203 -393l189 381h143l-248 -465l319 -551h-147l-252 459l-237 -459h-146z" />
<glyph unicode="Y" horiz-adv-x="790" d="M10 996l127 32l177 -350q10 -24 20 -44t16 -34t16 -35t23 -51q29 58 38 79t16 34t13 26l183 363h141l-330 -620v-396h-128v404z" />
<glyph unicode="Z" horiz-adv-x="751" d="M51 0v94l457 725q13 21 24 38q12 17 21 31t17 26h-482l45 102h571v-106l-446 -712q-18 -30 -35 -55t-25 -37h504l-34 -106h-617z" />
<glyph unicode="[" horiz-adv-x="385" d="M41 -232v1312h256v-89h-145v-1133h145v-90h-256z" />
<glyph unicode="\" horiz-adv-x="553" d="M4 1069l96 37l445 -1132l-97 -38z" />
<glyph unicode="]" horiz-adv-x="381" d="M88 -142h144v1133h-144v89h252v-1312h-252v90z" />
<glyph unicode="^" horiz-adv-x="981" d="M116 418l330 624h88l330 -624h-110l-262 504l-264 -504h-112z" />
<glyph unicode="_" horiz-adv-x="729" d="M0 -110h729v-74h-729v74z" />
<glyph unicode="`" horiz-adv-x="499" d="M62 987l50 99l314 -185l-72 -53z" />
<glyph unicode="a" horiz-adv-x="747" d="M70 190q0 190 224 246q72 18 124 18h64t30 -2v52q0 78 -15 104q-30 52 -108 52q-91 0 -188 -56q-27 -14 -45 -30l-60 80q145 100 310 100q177 0 206 -140q8 -42 8 -90v-328q0 -92 29 -121q11 -11 29 -19l-58 -84q-79 25 -100 108q-83 -80 -154 -93q-28 -5 -77.5 -5 t-94.5 18q-124 49 -124 190zM198 200q0 -134 128 -134q90 0 150 68q20 22 32 48v190q-15 5 -70.5 5t-104 -12t-78.5 -35q-57 -42 -57 -130z" />
<glyph unicode="b" horiz-adv-x="803" d="M100 0q23 50 23 150v901l115 23v-422q98 98 208 98q132 0 209 -100q76 -100 76 -271q0 -178 -81 -287q-79 -108 -212 -108q-85 0 -164 59q-22 17 -36 37q-8 -49 -21 -80h-117zM238 172q46 -59 130 -81q26 -7 48 -7t42 5q63 16 95 61q51 79 51 235q0 203 -116 251 q-28 11 -66 11q-107 0 -184 -96v-379z" />
<glyph unicode="c" horiz-adv-x="667" d="M70 372q0 272 182 357q57 27 134 27q147 0 230 -111l-65 -69q-33 46 -62 61q-49 25 -106.5 25t-93.5 -24t-57 -62q-40 -70 -40 -185q0 -313 197 -313q120 0 176 84l59 -70q-82 -110 -237 -110q-151 0 -235 104q-82 103 -82 286z" />
<glyph unicode="d" horiz-adv-x="803" d="M70 360q0 164 76 272q81 116 214.5 116t200.5 -94v396l115 23v-835q0 -148 9 -174t19 -42l-114 -38q-22 52 -25 92q-75 -86 -195 -86q-143 0 -221.5 98t-78.5 272zM196 364q0 -278 179 -278q89 0 151 56q21 18 33 44v392q-55 76 -161 76q-108 0 -159 -91 q-43 -77 -43 -199z" />
<glyph unicode="e" horiz-adv-x="747" d="M72 375q0 156 80 264q85 115 229 115q283 0 283 -392v-16h-459q0 -195 115 -247q41 -19 102 -19q108 0 188 76l37 -80q-104 -92 -247 -92q-154 0 -242 104q-86 102 -86 287zM205 432h335q0 108 -24.5 150.5t-56.5 62t-97.5 19.5t-108.5 -59t-48 -173z" />
<glyph unicode="f" horiz-adv-x="432" d="M35 647v86h98v115q0 160 121 204q40 15 76.5 15t57 -1.5t39.5 -6.5q44 -12 73 -31l-27 -84q-41 33 -119 33q-100 0 -100 -129v-115h207l-35 -86h-172v-647h-121v647h-98z" />
<glyph unicode="g" horiz-adv-x="782" d="M83 -44l132 28v-42q0 -95 97 -119q28 -7 77 -7t85 9q72 18 100 63q14 22 14 50q0 122 -156 122h-175q-64 0 -101.5 27t-37.5 77q0 44 22 66q37 37 111 59q-116 38 -154 143q-12 34 -12 79.5t23 91t62 78.5q83 69 205 69q64 0 105 -14t58 -18q45 -12 76 -12q90 0 130 50 l42 -76q-56 -49 -133 -49q-19 0 -41 2q46 -50 46 -113.5t-20 -106.5t-55 -73q-75 -66 -187 -66q-151 -56 -151 -88t59 -32h173q235 0 235 -201q0 -110 -92 -171q-84 -56 -193 -56t-170 12t-100 37q-74 47 -74 151v30zM214 505q0 -37 12 -64t34 -45q45 -38 96.5 -38t79 9.5 t47.5 28.5q42 38 42 110q0 146 -154 146q-109 0 -145 -82q-12 -28 -12 -65z" />
<glyph unicode="h" horiz-adv-x="798" d="M123 0v1051l119 23v-298l-2 -68v-32t-2 -50q77 65 109 84q69 40 124.5 40t94 -14t66.5 -40q58 -54 58 -154v-542h-118v506q0 98 -63 130q-23 11 -57 11q-100 0 -210 -133v-514h-119z" />
<glyph unicode="i" horiz-adv-x="366" d="M98 944.5q0 17.5 7 33.5t18 28t26 19t33 7t34 -7t28 -18q24 -23 24 -50t-6.5 -43t-18 -27.5t-27.5 -18t-34 -6.5t-33 6.5t-26 18t-18 26t-7 32zM125 0v731l115 19v-750h-115z" />
<glyph unicode="j" horiz-adv-x="368" d="M22 -213q95 42 102 152q3 37 3 85v703l115 25v-738q0 -112 -26 -164.5t-61 -84.5t-93 -58zM98 944.5q0 17.5 7 33.5t18 28t26 19t33 7t34 -7t28 -18q24 -23 24 -50t-6.5 -43t-18 -27.5t-27.5 -18t-34 -6.5t-33 6.5t-26 18t-18 26t-7 32z" />
<glyph unicode="k" horiz-adv-x="735" d="M123 0v1052l115 22v-1074h-115zM242 424l286 309h146l-295 -309l342 -402l-127 -32z" />
<glyph unicode="l" horiz-adv-x="366" d="M123 110v938l115 23v-899q0 -98 28 -154l-110 -30q-33 53 -33 122z" />
<glyph unicode="m" horiz-adv-x="1155" d="M94 712l117 46q31 -70 31 -115q58 68 156 101q28 10 56 10q90 0 144 -71q18 -23 28 -52q119 123 230 123q82 0 132 -56t50 -145v-553h-116v542q0 110 -94 110q-78 0 -189 -116v-536h-115v532q0 57 -15 78q-27 37 -81 37q-82 0 -188 -98v-549h-115v570q0 87 -31 142z" />
<glyph unicode="n" horiz-adv-x="790" d="M96 721l113 31q29 -51 29 -121q123 119 227 119q84 0 143 -50q64 -53 64 -135v-565h-119v512q0 67 -17 92q-33 48 -98 48q-60 0 -149 -75q-25 -21 -45 -43v-534h-119v568q0 95 -29 153z" />
<glyph unicode="o" horiz-adv-x="794" d="M74 372q0 89 21 160.5t62 120.5q86 103 228 103q208 0 283 -202q32 -84 32 -187t-22 -173t-63 -117q-83 -95 -224 -95q-151 0 -235 104q-82 103 -82 286zM196 391q0 -313 197 -313q156 0 181 202q4 33 4 66q0 316 -193 316q-102 0 -150 -86q-39 -71 -39 -185z" />
<glyph unicode="p" horiz-adv-x="805" d="M108 725l107 31q19 -38 19 -115q91 109 216 109q136 0 210 -111q67 -101 67 -271q0 -153 -66 -260q-77 -126 -221 -126q-118 0 -202 84v-350l-113 -23v883q0 94 -17 149zM238 172q86 -94 182 -94q158 0 180 214q4 32 4 61t-1 61.5t-7 65t-16.5 62.5t-29.5 54 q-42 51 -116 51q-107 0 -196 -105v-370z" />
<glyph unicode="q" horiz-adv-x="801" d="M76 359.5q0 88.5 17 158.5q35 143 137 202q52 30 124 30q125 0 218 -109v13q0 50 14 79h114q-22 -33 -22 -113v-902l-113 -25v373q-84 -84 -203 -84q-185 0 -257 206q-29 83 -29 171.5zM198 372q0 -49 4 -81t12 -62.5t21.5 -58t34.5 -48.5q44 -44 113 -44q98 0 182 94 v370q-87 105 -197 105q-135 0 -161 -167q-9 -59 -9 -108z" />
<glyph unicode="r" horiz-adv-x="508" d="M98 723l117 31q25 -62 25 -109v-12q60 84 162 114q30 9 48 9q26 0 35.5 -3t16.5 -3l-48 -119q-18 6 -42 6t-57 -13.5t-59 -37.5q-56 -52 -56 -127v-459h-115v568q0 101 -27 155z" />
<glyph unicode="s" horiz-adv-x="667" d="M56 56l54 79q104 -67 222 -67q104 0 136 74q11 22 11 49t-5.5 47t-19.5 36q-26 28 -90 44l-96 20q-184 40 -184 198q0 102 72 164q74 62 188 62q129 0 232 -60l-50 -80q-108 50 -186 50q-62 0 -90 -25q-47 -42 -47 -90.5t23.5 -74.5t80.5 -38l97 -20q157 -34 188 -134 q10 -33 10 -79.5t-20 -90.5q-41 -91 -144 -125q-50 -17 -99 -17t-85 5.5t-70 16.5q-76 22 -128 56z" />
<glyph unicode="t" horiz-adv-x="475" d="M39 647v86h96v189l121 24v-213h188l-36 -86h-156v-473q0 -64 15 -81q24 -29 74.5 -29t82.5 16l30 -68q-64 -34 -151 -34q-118 0 -151 74q-17 36 -17 92v503h-96z" />
<glyph unicode="u" horiz-adv-x="807" d="M119 182v541l115 25v-525q0 -80 20 -106q34 -43 112 -43q85 0 151 82q21 26 36 59v508l115 25v-537q0 -104 26 -138q10 -13 25 -26l-74 -77q-64 53 -80 126q-91 -120 -233 -120q-150 0 -197 120q-15 38 -16 86z" />
<glyph unicode="v" horiz-adv-x="688" d="M8 727l117 27l161 -480q8 -24 16 -50t15.5 -50t14.5 -51h2q7 26 14.5 50t15.5 50.5t17 50.5l157 459h122l-275 -741h-113z" />
<glyph unicode="w" horiz-adv-x="1018" d="M33 727l115 27l108 -478q6 -26 11 -49q12 -56 15 -81h7q6 22 11 44q14 58 22 86l122 457h128l120 -457q10 -40 19 -75t16 -64h4q18 111 29 137l102 459h121l-201 -739h-112l-142 498l-24 100h-4l-23 -100l-141 -498h-106z" />
<glyph unicode="x" horiz-adv-x="659" d="M-4 0l274 406l-225 315l121 25l166 -256l147 243h135l-227 -327l283 -406h-142l-196 312l-201 -312h-135z" />
<glyph unicode="y" horiz-adv-x="688" d="M33 719l113 37l138 -463q9 -29 15.5 -53t11.5 -40t12 -42t17 -62h4q12 38 19 64.5t12 43t10 32.5t9 30.5t8 26.5l130 440h134l-254 -759q-38 -119 -77 -169q-69 -87 -159 -108l-34 77q72 25 98 60q46 63 72 168l-44 -8z" />
<glyph unicode="z" horiz-adv-x="628" d="M45 0v88l401 555h-378l36 90h464v-92l-384 -553h394l-40 -88h-493z" />
<glyph unicode="{" horiz-adv-x="504" d="M49 381v88q49 0 87 48q40 51 40 126v244q0 87 51 141q48 52 105 52h110v-89h-88q-72 0 -72 -123v-246q0 -87 -51 -144q-38 -43 -75 -52v-2q39 -7 68 -38q58 -66 58 -160v-242q0 -126 72 -126h88v-90h-110q-59 0 -106 53q-50 57 -50 142v242q0 74 -40 127q-38 49 -87 49z " />
<glyph unicode="|" horiz-adv-x="334" d="M114 -26v1142h105v-1142h-105z" />
<glyph unicode="}" horiz-adv-x="508" d="M60 -144h90q71 0 71 126v241q0 122 79 178q25 18 48 21v2q-38 10 -64 38q-63 70 -63 158v246q0 123 -71 123h-90v88h112q57 0 104 -51q52 -57 52 -142v-243q0 -74 40 -126q36 -48 86 -48v-88q-50 0 -86 -49q-40 -54 -40 -127v-242q0 -85 -50 -142q-47 -53 -106 -53h-112 v90z" />
<glyph unicode="~" horiz-adv-x="981" d="M156 416q77 131 180 131q66 0 158 -50q94 -51 162 -51q61 0 96 52q11 16 20 32l54 -51q-76 -131 -181 -131q-67 0 -157 50q-88 50 -162 50q-67 0 -95 -50q-9 -16 -18 -36z" />
<glyph unicode="&#xe01;" horiz-adv-x="882" d="M84 676q185 139 392 139q205 0 266 -141q16 -45 16 -140v-534h-122v510q0 102 -26 143q-37 57 -148 57q-113 0 -220 -56l10 -19q23 -47 23 -105v-530h-123v494q0 81 -16 108z" />
<glyph unicode="&#xe02;" horiz-adv-x="786" d="M68 742q105 71 214 71q116 0 157 -71q15 -26 15 -65t-13 -71t-33 -60t-44 -53q-99 -100 -117 -177q-2 -18 -2 -37v-29q0 -117 87 -158q30 -14 66.5 -14t62 12.5t43.5 35.5q36 48 36 130v529l122 24v-559q0 -204 -171 -253q-45 -13 -104.5 -13t-107.5 18t-83 49 q-74 67 -74 164v94q0 83 106 188q69 67 88 96t19 52q0 76 -67 76q-57 0 -118 -35q-18 -10 -32 -22z" />
<glyph unicode="&#xe03;" horiz-adv-x="784" d="M15 738l61 73q2 -2 84 -69q56 67 148 67q64 0 105 -43q40 -41 40 -86.5t-12.5 -75.5t-32.5 -57t-44 -53q-101 -109 -116 -178q-2 -14 -2 -28v-48q0 -112 88 -150q29 -12 64.5 -12t60.5 12.5t42 35.5q36 50 36 130v529l123 24v-559q0 -203 -170 -253q-44 -13 -103 -13 t-106.5 18t-82.5 49q-74 67 -74 164v94q0 77 110 193q75 79 92.5 106.5t17.5 49.5t-14 35t-35 13t-36 -8t-27.5 -20t-24 -26t-37.5 -42q-122 103 -155 128z" />
<glyph unicode="&#xe04;" horiz-adv-x="874" d="M124 0v580q0 93 84 159q90 72 242 72q132 0 216 -60q84 -61 84 -171v-580h-122v553q0 72 -52 117q-53 45 -149 45q-112 0 -163 -79q-17 -28 -17 -66v-154q77 92 186 92q30 0 51 -6l-24 -98q-61 20 -140 -32q-57 -38 -73 -79v-293h-123z" />
<glyph unicode="&#xe05;" horiz-adv-x="901" d="M124 0v499q0 196 130 277q44 28 106 38l104 -84l98 84q153 -24 200 -142q16 -38 16 -83v-589h-124v566q0 104 -67 138l-123 -100l-117 94q-61 -26 -89 -112q-11 -32 -11 -72v-105q77 92 186 92q27 0 51 -6l-26 -99l-39 4q-74 0 -143 -70q-20 -21 -29 -44v-286h-123z" />
<glyph unicode="&#xe06;" horiz-adv-x="858" d="M30 723l53 86q33 -20 88 -71q63 73 145 73q88 0 118 -80q8 -23 8 -52.5t-11 -59t-28.5 -58.5t-38 -57t-40.5 -58q-61 -92 -61 -152v-24l1 -44q0 -11 1 -21q71 -75 166 -104q29 -9 60.5 -9t56.5 11t39 33q25 38 25 122v526l122 25v-617q0 -87 -60 -146q-61 -62 -174.5 -62 t-236.5 122q0 -59 -29 -124l-122 36q28 56 28 166v125q0 99 96 204q59 66 76.5 97.5t17.5 59.5q0 38 -36 38q-33 0 -82 -56q-8 -10 -17 -20t-16 -20q-122 100 -149 111z" />
<glyph unicode="&#xe07;" horiz-adv-x="684" d="M36 578l111 24l174 -516q116 0 116 166v219q0 111 -17.5 152t-41.5 64q-26 23 -66 42l64 86q122 -56 162 -157q22 -50 22 -174v-238q0 -154 -82 -216q-61 -46 -170 -46q-46 0 -82 12z" />
<glyph unicode="&#xe08;" horiz-adv-x="749" d="M8 703q162 111 355 111q132 0 207 -70q55 -52 55 -186v-318q0 -107 -22.5 -149.5t-47.5 -62.5q-55 -44 -157 -44q-40 0 -82 12l-102 380q-17 70 -58 90l88 71q53 -30 76 -120l89 -333q85 0 91 98q2 31 2 70v292q0 88 -20 116q-40 52 -138 52q-85 0 -209 -54 q-43 -19 -69 -37z" />
<glyph unicode="&#xe09;" horiz-adv-x="848" d="M53 686q194 129 399 129q211 0 258 -160q15 -53 15 -125v-346q0 -102 33 -168l-125 -34q-29 58 -29 124q-124 -122 -246 -122q-96 0 -153 58q-55 57 -55 150v128q0 106 -31 168l121 32q32 -64 32 -124v-154q0 -71 14 -97q28 -53 103 -53q72 0 164 70q27 20 49 43v305 q0 102 -18 131.5t-37 42.5q-40 26 -117 26q-154 0 -326 -106z" />
<glyph unicode="&#xe0a;" horiz-adv-x="786" d="M84 752q98 61 203 61q92 0 137 -51q16 -19 23 -45q139 43 201 182l108 -47q-31 -85 -136 -154q-34 -22 -74 -38q116 -46 116 -208v-202q0 -203 -170 -253q-44 -13 -103 -13t-107 18t-83 49q-75 66 -75 164v94q0 85 107 188q66 63 86.5 98t20.5 65q-3 60 -62.5 59.5 t-147.5 -49.5zM246 240q0 -112 90 -150q29 -12 63.5 -12t59.5 12.5t43 35.5q37 49 37 130v190q0 70 -26.5 112t-71.5 52q-18 -48 -104 -136q-91 -94 -91 -186v-48z" />
<glyph unicode="&#xe0b;" horiz-adv-x="795" d="M20 725l56 84q61 -38 92 -69q69 69 150 69q70 0 113 -56q13 -17 19 -36q67 21 101 47q64 49 105 135l108 -47q-46 -114 -201 -194q56 -26 93 -114q14 -28 16 -62v-232q0 -203 -170 -253q-44 -13 -103 -13t-107 18t-83 49q-76 67 -76 164v94q0 85 111 190q72 68 91 100.5 t19 56.5q0 50 -51 50q-44 0 -90 -57l-35 -39q-109 91 -158 115zM256 240q0 -112 86 -150q30 -12 68 -12q139 0 139 178v213q0 76 -57 121q-18 14 -42 22q-16 -46 -49 -82t-54 -57t-39 -45q-52 -69 -52 -140v-48z" />
<glyph unicode="&#xe0c;" horiz-adv-x="1275" d="M84 676q185 139 388 139q102 0 148 -26t68 -52.5t32 -51.5t13.5 -48t5.5 -47q3 -36 3 -80v-293q50 -65 124 -105q26 -14 58 -14t54.5 14t33.5 38q16 31 16 114v521l124 24v-611q0 -89 -61 -150q-58 -58 -147 -58q-57 0 -96 27q-50 35 -108 95q0 -66 -29 -124l-123 32 q31 70 31 168v332q0 101 -15.5 127.5t-33.5 38.5q-36 24 -102 24q-102 0 -226 -56l10 -19q23 -47 23 -105v-317q0 -68 17 -91q29 -40 104 -40l16 -86q-50 -17 -110 -2.5t-88 35.5q-62 45 -62 141v350q0 56 -16 82z" />
<glyph unicode="&#xe0d;" horiz-adv-x="1257" d="M84 676q185 139 388 139q102 0 148 -26t68 -52.5t32 -51.5t13.5 -48t4.5 -47q4 -56 4 -80v-256q0 -78 22 -107q40 -53 115 -53q131 0 131 176v515l123 24v-752q0 -200 -199 -249q-46 -12 -97 -12t-84.5 6.5t-60.5 19.5q-50 23 -86 73l101 55q42 -57 128.5 -57t129 41.5 t45.5 130.5q-43 -67 -150 -67q-110 0 -177 67q-64 64 -64 164v291q0 101 -15.5 127.5t-33.5 38.5q-36 24 -102 24q-105 0 -226 -56l10 -19q23 -47 23 -105v-317q0 -70 17 -91q30 -40 104 -40l16 -86q-50 -17 -110 -2.5t-88 35.5q-62 45 -62 141v350q0 56 -16 82z" />
<glyph unicode="&#xe0e;" horiz-adv-x="892" d="M72 92q75 0 97 32q17 25 17 89v248q0 79 -28 121q-8 12 -17 24l-57 70q185 139 395 139q214 0 273 -141q16 -37 16 -138v-671q0 -123 -90 -167q-32 -16 -80 -16l-162 84q-30 -11 -53 -39.5t-31 -42.5l-98 44q50 81 140 123q28 13 54 18l160 -82q21 0 34 49q3 14 3 29v645 q0 100 -23 135q-44 65 -160 65q-97 0 -218 -56q39 -43 52 -86.5t13 -63.5v-334q0 -81 -51 -128q-48 -44 -127 -44h-17q-8 0 -16 2z" />
<glyph unicode="&#xe0f;" horiz-adv-x="891" d="M71 92q76 0 98 32q17 25 17 89v248q0 90 -46 145l-56 70q185 139 394 139q212 0 273 -141q17 -43 17 -138v-686q0 -168 -168 -168l-111 82l-111 -82l-112 90q-30 -6 -68 -55q-10 -13 -17 -25l-91 40q51 83 134 120q26 12 54 16l100 -80l111 81l127 -84q28 0 28 47v678 q0 101 -24 136q-44 64 -158 64q-95 0 -219 -56q63 -63 63 -150v-334q0 -126 -104 -161q-34 -11 -57 -11h-31q-8 0 -16 2z" />
<glyph unicode="&#xe10;" horiz-adv-x="746" d="M6 706q162 111 354 111q50 0 86 -7.5t48 -7.5q88 0 174 95l84 -71q-55 -66 -168 -95q38 -43 38 -170v-333q0 -105 -22 -143.5t-47 -56.5q-56 -40 -155 -40q-46 0 -82 12l-103 381q-13 51 -30 71t-29 23l86 65q52 -30 78 -118l92 -332q58 0 76 43q14 33 14 123v291 q0 85 -20 114q-39 54 -152.5 54t-265.5 -91zM80 -213l82 57q30 -48 70 -63l106 73l106 -77q32 0 40 15q14 25 14 81v37l116 26v-86q0 -91 -46 -128.5t-148 -37.5l-82 68l-100 -68q-102 26 -158 103z" />
<glyph unicode="&#xe11;" horiz-adv-x="915" d="M31 738l76 71q35 -23 69 -67q21 21 45 36q45 29 78 29t49 -5.5t29 -17.5q27 -23 27 -65v-13q80 103 198 103q83 0 137 -60q52 -58 52 -149v-600h-125v547q0 77 -10 102q-18 51 -72 51q-77 0 -166 -103q-92 -108 -92 -222v-375h-123v336q0 114 82 278q15 27 15 52.5 t-23 25.5q-39 0 -119 -100q-45 74 -127 146z" />
<glyph unicode="&#xe12;" horiz-adv-x="1296" d="M97 338v150q0 196 131 276q44 28 104 39l107 -91l101 91q153 -25 196 -142q14 -37 14 -83v-365q34 -50 116 -97q42 -24 69.5 -24t46.5 6.5t31.5 18t19.5 27.5t11 34q6 28 6 80v527l122 24v-617q0 -90 -60 -150q-58 -58 -146 -58q-83 0 -169 78q-25 22 -49 44 q0 -61 -28 -124l-123 34q31 70 31 168v371q0 117 -64 137l-125 -108l-119 102q-64 -27 -90 -112q-10 -32 -10 -72v-174q0 -147 42 -202q34 -42 78.5 -42t53.5 6l16 -86q-20 -10 -73 -10t-83 10.5t-54 28t-40.5 42t-28 52t-18.5 56.5t-11 57q-5 44 -5 98z" />
<glyph unicode="&#xe13;" horiz-adv-x="1284" d="M86 676q185 139 386 139q104 0 150 -26t68 -52.5t31 -50.5t13 -38t6 -32q5 -45 5 -94v-266q0 -77 12 -104q24 -54 93 -54q50 0 140 73q26 21 48 46v567l122 25v-621q0 -100 30 -168l-124 -32q-28 63 -28 124q-112 -122 -218 -122q-87 0 -142 58q-56 60 -56 150v318 q0 102 -15.5 129t-33.5 39q-37 26 -103 26q-101 0 -225 -56q4 -8 10.5 -19t12.5 -25q14 -34 14 -80v-325q0 -69 15 -88q24 -31 81 -31h14q5 0 13 2l21 -84q-109 -33 -195 8q-78 36 -78 158l4 356q0 57 -19 76z" />
<glyph unicode="&#xe14;" horiz-adv-x="849" d="M96 362v99q0 350 332 350q207 0 275 -143q22 -46 22 -105v-563h-123v536q0 86 -48 132.5t-142 46.5q-187 0 -187 -231v-177q0 -175 84 -213q23 -11 62.5 -11.5t54.5 9.5l14 -84q-37 -14 -102.5 -14t-105 18t-65 47.5t-40 68t-21.5 79.5q-10 59 -10 155z" />
<glyph unicode="&#xe15;" horiz-adv-x="874" d="M97 338v156q0 196 131 276q44 28 104 39l107 -90l101 90q154 -25 196 -141q14 -38 14 -84v-584h-122v563q0 115 -64 135l-125 -106l-119 102q-63 -27 -90 -114q-10 -32 -10 -72v-180q0 -189 79 -232q23 -12 60.5 -12t63.5 8l16 -84q-42 -14 -98.5 -14t-86.5 10.5t-54 28 t-40.5 42t-28 52t-18.5 56.5t-11 57q-5 44 -5 98z" />
<glyph unicode="&#xe16;" horiz-adv-x="895" d="M82 676q185 139 396 139q213 0 276 -141q17 -40 17 -166v-508h-123v510q0 100 -24 135q-46 65 -159 65q-104 0 -225 -56q34 -51 34 -124v-298q0 -82 14 -106q26 -44 106 -44l18 -86q-18 -6 -57.5 -6t-77 11t-65.5 34q-60 49 -60 145v321q0 69 -16 101z" />
<glyph unicode="&#xe17;" horiz-adv-x="833" d="M93 780l123 35q28 -63 28 -125q123 123 252 123q88 0 150 -59q64 -59 64 -150v-604h-124v538q0 80 -16 109q-30 57 -102 57q-76 0 -172 -68q-28 -21 -49 -44v-592h-123v614q0 104 -31 166z" />
<glyph unicode="&#xe18;" horiz-adv-x="815" d="M104 620q0 92 84 147q76 50 203 50q122 0 239 -39q36 -12 62 -26l-47 -92q-114 57 -256 57q-109 0 -147 -51q-12 -16 -12 -34.5t11 -35t30 -29.5q31 -21 95 -41l162 -51q171 -54 196 -166q7 -35 7 -84t-22 -96t-63 -79q-86 -66 -235.5 -66t-287.5 80v304l123 28v-280 q81 -34 145.5 -34t99 9t60.5 25q57 37 57 99q0 59 -15 84q-29 49 -103 71l-166 52q-93 27 -135 57q-85 60 -85 141z" />
<glyph unicode="&#xe19;" horiz-adv-x="836" d="M98 780l121 35q31 -80 31 -125v-432q0 -78 15 -108q30 -58 103 -58q77 0 172 70q28 20 50 43v581l122 23v-625q0 -110 32 -168l-124 -34q-28 63 -28 124q-126 -122 -252 -122q-89 0 -149 58q-64 62 -64 150v422q0 108 -29 166z" />
<glyph unicode="&#xe1a;" horiz-adv-x="844" d="M96 780l121 35q33 -66 33 -125v-448q0 -162 182 -162q108 0 151 77q15 27 15 66v563l123 23v-594q0 -94 -77 -160q-85 -73 -234 -73q-201 0 -262 134q-20 43 -21 99v399q0 116 -31 166z" />
<glyph unicode="&#xe1b;" horiz-adv-x="890" d="M94 780l121 35q33 -66 33 -125v-448q0 -112 119 -150q39 -12 77.5 -12t71.5 8t62 25q66 40 66 110v930l122 24v-962q0 -93 -88 -160q-97 -73 -247 -73q-211 0 -282 134q-23 43 -24 99v399q0 116 -31 166z" />
<glyph unicode="&#xe1c;" horiz-adv-x="859" d="M82 307v156q0 280 157 333q31 11 58 11t43 -1t32 -3q40 -5 52 -11l-16 -84q-25 9 -47 9q-70 0 -96.5 -24.5t-38.5 -51.5q-20 -45 -20 -135v-213q0 -74 25 -113q37 -58 75 -74l118 103l126 -107q63 18 63 136v548l123 23v-594q0 -191 -211 -225l-101 92l-106 -92 q-236 46 -236 317z" />
<glyph unicode="&#xe1d;" horiz-adv-x="859" d="M82 307v156q0 280 157 333q31 11 58 11t43 -1t32 -3q40 -5 52 -11l-16 -84q-25 9 -47 9q-70 0 -96.5 -24.5t-38.5 -51.5q-20 -45 -20 -135v-213q0 -74 25 -113q37 -58 75 -74l118 103l126 -107q63 18 63 136v912l123 24v-959q0 -191 -211 -225l-101 92l-106 -92 q-236 46 -236 317z" />
<glyph unicode="&#xe1e;" horiz-adv-x="1070" d="M94 780l121 35q33 -66 33 -125v-477q0 -92 48 -123q15 -10 41.5 -10t52.5 11.5t45 33.5q40 46 40 127v533l123 24v-567q0 -109 60 -148q22 -14 55.5 -14t54 10t32.5 32q24 41 24 136v526l122 24v-558q0 -264 -231 -264q-115 0 -167 76q-13 20 -22 36q-67 -114 -225 -114 q-128 0 -165 128q-11 40 -11 86v416q0 111 -31 166z" />
<glyph unicode="&#xe1f;" horiz-adv-x="1070" d="M94 780l121 35q33 -66 33 -125v-477q0 -92 48 -123q15 -10 41.5 -10t52.5 11.5t45 33.5q40 46 40 127v533l123 24v-567q0 -109 60 -148q22 -14 55.5 -14t54 10t32.5 32q24 41 24 136v898l122 21v-927q0 -264 -231 -264q-115 0 -167 76q-13 20 -22 36q-67 -114 -225 -114 q-128 0 -165 128q-11 40 -11 86v416q0 111 -31 166z" />
<glyph unicode="&#xe20;" horiz-adv-x="892" d="M72 92q79 0 101 36q14 23 14 98v235q0 81 -29 121q-8 12 -18 24l-56 70q185 139 396 139t270 -141q18 -41 18 -93v-581h-122v510q0 135 -61 174q-42 26 -110 26q-117 0 -233 -56q41 -45 54.5 -87.5t13.5 -62.5v-334q0 -170 -212 -170z" />
<glyph unicode="&#xe21;" horiz-adv-x="835" d="M94 16q31 70 31 168v430q0 111 -31 166l121 35q33 -66 33 -125v-485q71 -74 167 -104q29 -9 54.5 -9t45 6.5t32.5 18t21 27.5t12 34q8 31 8 80v527l122 24v-617q0 -89 -63 -150q-60 -58 -149 -58q-128 0 -252 122q0 -66 -29 -124z" />
<glyph unicode="&#xe22;" horiz-adv-x="861" d="M112 230q0 129 103 194q-101 61 -101 172q0 165 164 206q38 9 74 9q68 0 94 -8l-14 -91q-15 3 -43.5 3t-55.5 -6.5t-49 -20.5q-46 -30 -46 -96q0 -58 46 -94q39 -31 99 -31h53l-18 -90l-27 -2q-108 -10 -143 -83q-12 -23 -12 -55.5t13.5 -63.5t38.5 -54q55 -49 148 -49 q111 0 161 79q17 27 17 66v570l124 24v-604q0 -94 -83 -159q-90 -72 -241 -72q-208 0 -279 148q-23 48 -23 108z" />
<glyph unicode="&#xe23;" horiz-adv-x="696" d="M51 64l49 92q123 -74 240 -74q72 0 113 34t41 99q0 48 -23 71q-39 37 -111 60l-78 24q-202 61 -202 208q0 108 73 174q73 65 197 65q119 0 232 -65l-48 -92q-89 45 -124.5 51t-65.5 6t-57 -8.5t-45 -24.5q-37 -33 -37 -71.5t7 -56.5q14 -35 49 -52.5t67 -28.5l82 -27 q102 -35 139 -72q67 -67 67 -132.5t-19 -112.5t-56 -80q-75 -67 -209 -67q-150 0 -281 80z" />
<glyph unicode="&#xe24;" horiz-adv-x="895" d="M82 676q185 139 396 139q213 0 276 -141q17 -40 17 -166v-800l-123 -24v826q0 100 -24 135q-46 65 -159 65q-104 0 -225 -56q34 -51 34 -124v-298q0 -82 14 -106q26 -44 106 -44l18 -86q-18 -6 -57.5 -6t-77 11t-65.5 34q-60 49 -60 145v321q0 69 -16 101z" />
<glyph unicode="&#xe25;" horiz-adv-x="819" d="M84 226q0 194 253 248q81 18 181 18l42 -2h18v57q0 85 -21 114q-39 54 -137 54q-101 0 -231 -67q-31 -16 -49 -28l-56 84q165 113 354 113q137 0 208 -71q24 -24 37 -55q17 -41 17 -175q-6 -188 -6 -334l2 -132v-50h-120l-4 211v89q0 48 2 104q-32 4 -66 4 q-295 0 -295 -172q0 -106 85 -136q26 -10 56 -10t50 4l14 -84q-24 -12 -89 -12t-114 20q-131 53 -131 208z" />
<glyph unicode="&#xe26;" horiz-adv-x="889" d="M68 94q106 0 114 78q2 24 2 54l-2 235q-3 84 -28 121q-9 12 -19 24l-55 70q185 139 397 139t271 -141q18 -48 18 -158v-808l-123 -24v826q0 137 -59 174q-42 26 -110 26q-115 0 -236 -56q67 -74 67 -150v-334q0 -170 -211 -170z" />
<glyph unicode="&#xe27;" horiz-adv-x="682" d="M26 710q58 58 102 74q71 27 151.5 27t141.5 -31.5t100 -85.5q75 -104 75 -280q0 -165 -75 -286q-87 -140 -251 -140q-72 0 -111 18q-58 27 -106 68l68 86q66 -54 97.5 -60t53.5 -6q197 0 197 346q0 272 -197 272q-105 0 -180 -77z" />
<glyph unicode="&#xe28;" horiz-adv-x="874" d="M124 0v580q0 93 84 159q90 72 242 72q49 0 71.5 -4.5t27.5 -4.5q46 0 96 25q77 39 115 80l81 -71q-43 -50 -169 -92q78 -65 78 -164v-580h-122v553q0 72 -52 117q-53 45 -149 45q-112 0 -163 -79q-17 -28 -17 -66v-158q55 67 135 89q26 7 44 7q37 0 58 -6l-24 -98 q-60 20 -140 -32q-54 -36 -73 -79v-293h-123z" />
<glyph unicode="&#xe29;" horiz-adv-x="840" d="M93 780l123 35q31 -70 31 -125v-458q0 -162 184 -162q107 0 149 79q15 27 15 66v145h-77q-106 0 -170 96l86 74q33 -50 64 -60q12 -4 29 -5h69v320l122 24v-344h2q43 0 97 30l45 -89q-58 -46 -141 -46h-3v-155q0 -95 -76 -159q-84 -72 -234 -72q-201 0 -264 134 q-20 43 -20 97v409q0 104 -31 166z" />
<glyph unicode="&#xe2a;" horiz-adv-x="821" d="M84 224q0 124 116 197q114 71 318 71l42 -2h18v57q0 85 -21 114q-39 54 -137 54t-224 -66q-33 -17 -54 -31l-58 86q165 113 354 113q37 0 57.5 -3.5t26.5 -4.5t12 -1q42 -4 90 27t84 70l84 -71q-45 -55 -145 -88q25 -27 37 -57q16 -39 16 -173q-6 -186 -6 -332l2 -134 v-50h-120l-4 211v89q0 48 2 104q-32 4 -66 4q-295 0 -295 -174q0 -106 85 -136q26 -10 56 -10t50 4l14 -84q-24 -12 -89 -12t-114 20q-131 53 -131 208z" />
<glyph unicode="&#xe2b;" horiz-adv-x="843" d="M96 780l123 35q31 -80 31 -125v-186q309 57 346 226q6 27 6 57l133 26q2 -9 2 -17v-16q0 -136 -129 -229q45 -12 79 -68q32 -53 32 -117v-366h-123v326q0 111 -43 146q-19 16 -51 20q-131 -51 -252 -70v-422h-123v614q0 111 -31 166z" />
<glyph unicode="&#xe2c;" horiz-adv-x="1067" d="M94 780l121 35q33 -66 33 -125v-477q0 -92 48 -123q15 -10 41.5 -10t52.5 11.5t45 33.5q40 46 40 127v295l123 24v-329q0 -109 60 -148q22 -14 55.5 -14t54 10t32.5 32q24 41 24 136l-1 284q0 87 -21 115q-40 53 -138 53q-46 0 -111 -18l-35 88q76 31 190 31 q167 0 265 101l84 -80q-58 -60 -173 -94q57 -42 61 -132q1 -24 1 -45v-311q0 -264 -231 -264q-115 0 -167 76q-13 20 -22 36q-67 -114 -225 -114q-128 0 -165 128q-11 40 -11 86v416q0 111 -31 166z" />
<glyph unicode="&#xe2d;" horiz-adv-x="807" d="M56 684q117 133 310 133q169 0 262 -113q93 -110 93 -311q0 -169 -77 -284q-85 -127 -253 -127q-142 0 -223 94q-78 90 -78 229q0 164 149 202q35 9 76 9q62 0 109 -10l-18 -88q-34 6 -69.5 6t-60 -11t-38.5 -30q-23 -31 -23 -89t12.5 -93.5t35.5 -62.5q51 -58 135 -58 q192 0 192 320q0 240 -138 294q-47 18 -93.5 18t-77.5 -6q-60 -12 -106.5 -43t-70.5 -59z" />
<glyph unicode="&#xe2e;" horiz-adv-x="809" d="M56 684q117 133 310 133q71 0 120 -19q103 10 172 62q26 20 52 48l84 -72q-62 -71 -194 -103q121 -111 121 -340q0 -169 -77 -284q-85 -127 -253 -127q-132 0 -215 84q-86 89 -86 241q0 164 149 201q35 8 71 8q49 0 114 -10l-18 -88q-22 6 -63 6t-66 -10.5t-39 -29.5 q-23 -31 -23 -89.5t12.5 -94t35.5 -62.5q51 -58 135 -58q192 0 192 321q0 240 -134 293q-48 18 -96 18t-79 -6q-60 -12 -106.5 -43t-70.5 -59z" />
<glyph unicode="&#xe2f;" horiz-adv-x="819" d="M56 549.5q0 73.5 22 119t59 76.5q74 62 189 62q32 0 55 -9l-23 -90q-22 4 -52 4t-54.5 -8.5t-41.5 -24.5q-32 -32 -32 -75t12 -68.5t34 -43.5q47 -40 130 -40q118 0 218 105v229l122 23v-809h-122v444q-96 -94 -246 -94q-130 0 -204 66q-66 60 -66 133.5z" />
<glyph unicode="&#xe30;" horiz-adv-x="490" d="M33 249l100 62q11 -70 61 -81q17 -3 35 -3q82 0 183 76l52 -70q-127 -118 -263 -118q-137 0 -168 134zM33 652l100 62q13 -84 96 -84q86 0 183 76l52 -70q-127 -118 -263 -118q-65 0 -95 22q-56 40 -73 112z" />
<glyph unicode="&#xe31;" d="M-627 1063l95 57q18 -39 50 -58t62 -19h418l-37 -95h-405q-96 0 -144 58q-25 25 -39 57z" />
<glyph unicode="&#xe32;" horiz-adv-x="614" d="M26 708q115 105 263 105q93 0 149 -60q54 -58 54 -149v-604h-124v538q0 80 -14 110q-27 62 -94 62q-69 0 -142 -40q-22 -12 -40 -27z" />
<glyph unicode="&#xe33;" horiz-adv-x="614" d="M-326 1056q0 56 41 97t97 41q58 0 98 -41q40 -42 40 -97q0 -58 -40 -98t-98 -40q-56 0 -97 40q-41 39 -41 98zM-246 1056q0 -39 36 -54q11 -5 23 -5q38 0 54 36q5 11 5 23q0 39 -36 54q-11 5 -23 5q-38 0 -54 -36q-5 -11 -5 -23zM26 708q115 105 263 105q93 0 149 -60 q54 -58 54 -149v-604h-124v538q0 80 -14 110q-27 62 -94 62q-69 0 -142 -40q-22 -12 -40 -27z" />
<glyph unicode="&#xe34;" d="M-712 948l43 95h545v-95h-588z" />
<glyph unicode="&#xe35;" d="M-710 948l46 95h428v100l112 21v-216h-586z" />
<glyph unicode="&#xe36;" d="M-710 948l46 95h314q-6 12 -6 35.5t10 43.5t26 35t37.5 24t45.5 9t45.5 -9t37.5 -25q36 -36 36 -84q0 -50 -26 -77q-45 -47 -93 -47h-473zM-280 1072q0 -18 12 -31t30.5 -13t31 13t12.5 31t-12 30t-31 12t-31 -12t-12 -30z" />
<glyph unicode="&#xe37;" d="M-710 948l43 94h231v100l113 21v-121h86v100l113 21v-215h-586z" />
<glyph unicode="&#xe38;" d="M-305 -174l75 86q81 -16 102 -93q4 -17 4 -38v-191h-122v170q0 48 -59 66z" />
<glyph unicode="&#xe39;" d="M-588 -211l66 93q66 0 94 -58q10 -18 10 -44v-13q0 -77 40 -101q16 -10 44 -10t45 7t28 22q21 29 21 97v78l118 23v-100q0 -207 -222 -207q-135 0 -178 95q-10 23 -13.5 56t-12.5 42q-18 20 -40 20z" />
<glyph unicode="&#xe3a;" d="M-286 -200.5q0 18.5 7 35.5t19 29q27 27 53.5 27t43.5 -7.5t29 -19.5q26 -26 26 -54.5t-7 -44t-19 -27.5q-25 -25 -54 -25t-44.5 6.5t-27.5 18.5t-19 27.5t-7 34z" />
<glyph unicode="&#xe3e;" />
<glyph unicode="&#xe3f;" horiz-adv-x="936" d="M148 0v1016h266v141l94 19v-160h14q221 0 274 -170q13 -40 13 -84t-10.5 -76t-30.5 -59q-41 -55 -112 -87q55 -13 73.5 -26.5t37.5 -27t36 -39t28 -53.5q21 -52 21 -104t-11 -90q-23 -80 -83 -132q-76 -68 -250 -68v-152h-94v152h-266zM272 106h142v365h-142v-365z M272 586h142v324h-142v-324zM508 106h12q203 0 203 188q0 46 -17 79t-46 54q-55 39 -152 43v-364zM508 586q115 7 157 84q15 28 15 71t-11 75q-31 90 -161 93v-323z" />
<glyph unicode="&#xe40;" horiz-adv-x="371" d="M124 786l122 23l2 -623v-43q0 -57 30 -63q12 -2 22 3l22 -75q-36 -14 -74 -14q-123 0 -123 160z" />
<glyph unicode="&#xe41;" horiz-adv-x="679" d="M124 786l122 23l2 -623v-43q0 -57 30 -63q12 -2 22 3l22 -75q-36 -14 -74 -14q-123 0 -123 160zM432 154v632l122 23l1 -623q0 -85 9 -94q19 -20 44 -9l21 -75q-36 -14 -74 -14q-123 0 -123 160z" />
<glyph unicode="&#xe42;" horiz-adv-x="403" d="M-64 994q38 128 182 170q45 14 87.5 14t76.5 -4t66 -12q63 -16 113 -39l-45 -86q-97 36 -136.5 39.5t-78.5 3.5t-76 -18t-53 -48q112 -91 172 -186q20 -30 21 -90t1 -100v-452q0 -84 9 -94q19 -20 45 -9l20 -75q-36 -14 -70 -14t-55 9t-35 22.5t-21 31t-11 35.5 q-4 22 -4 62v496q0 122 -24.5 162t-55 73t-56.5 57q-41 36 -72 52z" />
<glyph unicode="&#xe43;" horiz-adv-x="403" d="M-116 1026q72 117 194 149q34 9 75.5 9t84.5 -15q129 -45 149 -171l-94 -162q-25 -44 -26 -86t-1 -60v-504q0 -84 9 -94q20 -20 44 -9l21 -75q-36 -14 -70 -14t-55 9t-35 22.5t-21 31t-11 35t-4 34.5v562q0 85 16 115.5t28 54.5q26 50 46 86t36 62q-14 50 -80 71 q-22 7 -50 7t-55 -9t-51 -25q-49 -32 -79 -81z" />
<glyph unicode="&#xe44;" horiz-adv-x="403" d="M-89 1094l57 88q85 -37 138 -90q104 69 208 90l86 -78q-76 -115 -95 -175t-25 -88.5t-9 -54.5q-5 -43 -5 -99v-501q0 -84 9 -94q19 -20 45 -9l20 -75q-36 -14 -70 -14t-55 9t-35 22.5t-21 31t-11 35.5q-4 22 -4 62l-2 531q0 142 26 204q44 104 87 167q-86 -31 -155 -88 q-50 50 -107 83t-82 43z" />
<glyph unicode="&#xe45;" horiz-adv-x="614" d="M26 708q115 105 263 105q93 0 149 -60q54 -58 54 -149v-896l-124 -24v854q0 138 -64 164q-18 8 -42 8q-99 0 -184 -67z" />
<glyph unicode="&#xe46;" horiz-adv-x="858" d="M82 542v19q0 152 130 214q44 21 106 28l106 -91l100 91q153 -25 196 -139q15 -38 15 -86v-564q0 -115 -23 -173q-40 -103 -163 -159l-61 82q108 46 120 168q4 40 4 92v531q0 118 -63 137l-125 -108l-119 102q-70 -3 -93 -71q-7 -19 -7 -39v-40q0 -95 55 -124 q24 -12 53 -12h45l2 2l17 -86q-17 -7 -66 -7t-94 15.5t-75 45.5q-60 60 -60 172z" />
<glyph unicode="&#xe47;" d="M-668 1103.5q0 38.5 14 71.5t39 55q52 46 135 46h243q51 0 78 20l45 -70q-42 -32 -92 -32h-279q-53 0 -80 -42q-11 -18 -11 -36t3 -30t9 -24q15 -30 40 -34l106 94l92 -84q33 -33 56 -19q28 19 -5 71l80 33q38 -82 13 -138q-21 -48 -86 -55q-46 -6 -75 14t-46 36l-31 30 l-84 -78q-108 0 -148 95q-16 38 -16 76.5z" />
<glyph unicode="&#xe48;" d="M-232 1276v186l108 20v-206h-108z" />
<glyph unicode="&#xe49;" d="M-424 1494l65 66q42 -11 69 -63q9 -19 9 -68.5t-23 -66.5h35q135 0 217 68l74 -68q-81 -71 -212 -82q-41 -4 -78 -5q-71 -2 -120 5l-30 82q36 7 36 61.5t-42 70.5z" />
<glyph unicode="&#xe4a;" d="M-475 1410.5q0 27.5 9.5 47.5t25.5 35q32 31 84.5 31t85.5 -54q49 58 104 58q61 0 82 -53q6 -15 6 -28t-1 -24t-6 -22q-13 -29 -35 -40q63 9 90 39q12 12 26 34l58 -50q-37 -55 -82 -72q-70 -27 -166 -27l-21 69q33 8 51 41q6 11 6 21q0 33 -24 33q-40 0 -88 -65 q-36 63 -86 63q-18 0 -27.5 -10.5t-9.5 -24.5t7.5 -26t19.5 -20q27 -18 49 -18l-15 -71q-95 0 -132 81q-11 25 -11 52.5z" />
<glyph unicode="&#xe4b;" d="M-352 1387v81h130v87l98 20v-107h133v-81h-133v-111h-98v111h-130z" />
<glyph unicode="&#xe4c;" d="M-244 1335q0 113 154 169l24 -52q-69 -28 -69 -94t27 -120l-113 -18q-23 58 -23 115z" />
<glyph unicode="&#xe4d;" d="M-326 1056q0 56 41 97t97 41q58 0 98 -41q40 -42 40 -97q0 -58 -40 -98t-98 -40q-56 0 -97 40q-41 39 -41 98zM-246 1056q0 -39 36 -54q11 -5 23 -5q38 0 54 36q5 11 5 23q0 39 -36 54q-11 5 -23 5q-38 0 -54 -36q-5 -11 -5 -23z" />
<glyph unicode="&#xe4e;" d="M-232 956q-9 113 58 156q-23 104 74 176q32 24 76 39l22 -43q-115 -44 -56 -185q8 -19 13 -28q-5 1 -9 -1q-10 -3 -21 -5.5t-21 -9.5t-17 -19q-14 -24 -12 -70z" />
<glyph unicode="&#xe4f;" horiz-adv-x="956" d="M70 400q0 168 119 288.5t286 120.5q169 0 289 -121q120 -119 120 -288t-119.5 -288.5t-289.5 -119.5q-168 0 -286 120q-119 120 -119 288zM164 400q0 -130 91 -221t221 -91t221 91t91 221t-91 221t-221 91t-221 -91t-91 -221zM272 400q0 42 16 79t44 65q60 60 143 60 q87 0 145 -60q60 -61 60 -144q0 -85 -59.5 -144.5t-145.5 -59.5q-82 0 -143 60q-60 58 -60 144zM366 400q0 -46 24 -70q40 -40 86 -40t70 24q40 40 40 86t-24 70q-40 40 -86 40t-70 -24q-40 -40 -40 -86z" />
<glyph unicode="&#xe50;" horiz-adv-x="991" d="M88 358q0 162 128 270q117 99 280 99q169 0 288 -101q124 -107 124 -274q0 -170 -127 -272q-116 -94 -299 -94q-69 0 -144 25.5t-130 74.5q-120 104 -120 272zM211 390q0 -67 11.5 -109.5t32.5 -74.5t49 -55t60 -38q60 -29 112 -29t85 6t65 19t61 33t51 48 q46 61 46 140.5t-24 135.5q-71 165 -266 165q-155 0 -238 -113q-45 -61 -45 -128z" />
<glyph unicode="&#xe51;" horiz-adv-x="1011" d="M50 98l46 86q92 -75 241 -98q43 -6 103.5 -6t130.5 19t120 55q105 77 105 208q0 139 -84 210q-73 63 -192 63q-154 0 -232 -81q-43 -44 -43 -104q0 -85 74 -124q23 -12 39 -12h24q8 0 16 2l21 -80q-13 -6 -60 -6t-93.5 16.5t-79.5 47.5q-66 62 -66 169q0 111 114 190 q115 80 278 80q278 0 373 -181q40 -76 40 -162t-18 -141t-50.5 -98.5t-77.5 -75.5t-100 -53q-109 -40 -245 -40q-217 0 -384 116z" />
<glyph unicode="&#xe52;" horiz-adv-x="1011" d="M29 772l119 31q26 -52 26 -111v-340q0 -103 92 -179q101 -83 260 -83q201 0 278 122q32 52 32 106v168q0 84 -75 120q-21 10 -44 14l-111 -96l-106 90q-36 0 -61 -24q-47 -46 -47 -104v-64q0 -58 11 -79q22 -42 71 -42l-15 -86q-191 0 -191 252q0 98 70 171q68 69 174 87 l94 -82l88 82q108 -6 185 -68q78 -63 78 -153v-160q0 -167 -119 -264q-109 -90 -268 -90h-76q-198 0 -320 110q-116 105 -116 266v254q0 94 -29 152z" />
<glyph unicode="&#xe53;" horiz-adv-x="1011" d="M86 338q0 88 16 151t52 111q73 98 220 115l127 -101l139 101q132 -12 205 -91q70 -76 70 -190v-184q0 -144 -63 -224q-22 -28 -54 -44l-70 96q49 56 57.5 98.5t8.5 75.5v182q0 66 -46 118q-43 48 -98 48l-149 -106l-139 106q-84 0 -128 -93q-26 -57 -26 -149v-40 q0 -220 123 -220q29 0 51 6l16 -98q-40 -10 -87 -10t-85 16t-63 43t-41 62t-24 74q-12 59 -12 147z" />
<glyph unicode="&#xe54;" horiz-adv-x="1011" d="M63 324v69q0 153 107 242q105 88 284 88h328q92 0 150 29l30 -107q-52 -29 -110 -29h-412q-113 0 -186 -60q-68 -57 -68 -140v-86q0 -159 143 -214q47 -18 109 -18h108q-98 53 -98 154q0 100 88 146q34 18 90 24l23 -78q-80 -10 -80 -86q0 -87 75 -137q22 -15 48 -23h186 l-26 -98h-434q-235 0 -322 177q-33 69 -33 147z" />
<glyph unicode="&#xe55;" horiz-adv-x="1011" d="M62 324v69q0 230 212 303q69 23 157 26q-11 28 -11 54.5t12 55t34 50.5q46 46 112 46q104 0 147 -97q13 -29 13 -61.5t-12 -46.5h54q96 0 150 29l30 -107q-52 -29 -110 -29h-412q-113 0 -184 -60q-68 -58 -68 -140v-86q0 -159 142 -214q46 -18 106 -18h113 q-67 37 -90 110q-7 22 -7 46q0 98 89 144q35 18 90 24l23 -78q-80 -10 -80 -90q0 -85 74 -134q22 -14 48 -22h182l-26 -98h-434q-235 0 -322 177q-32 67 -32 147zM505 764q0 -49 45 -68q14 -6 28 -6q47 0 68 45q6 13 6 29q0 48 -45 68q-13 5 -29 5q-49 0 -68 -45 q-5 -13 -5 -28z" />
<glyph unicode="&#xe56;" horiz-adv-x="1011" d="M35 738l93 56l86 -145q160 78 338 78q192 0 286 -103q82 -89 82 -247q0 -166 -113 -277q-112 -110 -293 -110q-134 0 -237 53q-129 66 -129 201q0 184 240 184l26 -86h-20q-93 0 -120 -58q-8 -18 -8 -42.5t11 -47t29 -40t42.5 -30t51.5 -20.5q51 -14 105 -14t105.5 18 t91.5 53q91 78 91 203q0 195 -138 244q-43 16 -95 16q-229 0 -386 -114z" />
<glyph unicode="&#xe57;" horiz-adv-x="1011" d="M33 365.5q0 155.5 68.5 245t199.5 104.5l103 -101l106 98q157 -22 212 -119q33 -60 38.5 -128.5t5.5 -101.5t-1 -51l-2 -36q-3 -47 -5 -57.5t-5 -24.5t-6 -27q-6 -24 -17 -44q130 82 130 229v312q0 52 8 116l120 -28q-11 -50 -11 -158v-228q0 -217 -176 -321 q-59 -35 -139 -53l-96 74q68 68 76 175q6 66 6 124t-10 102.5t-27 72.5q-32 54 -91 58l-116 -104l-113 106q-137 -17 -137 -259.5t122 -242.5q19 0 52 6l16 -98q-40 -10 -87 -10t-84 17t-63 45t-41 64q-36 88 -36 243.5z" />
<glyph unicode="&#xe58;" horiz-adv-x="1011" d="M82 303v90q0 152 107 242q104 88 284 88h344q98 0 149 29l32 -107q-52 -29 -111 -29h-428q-114 0 -187 -60q-69 -57 -69 -140v-144q0 -67 45 -118q42 -50 94 -50l152 109l139 -109q101 0 136 83q13 31 13 79q0 126 -120 132l36 84q185 -12 200 -169q3 -25 3 -49 q0 -134 -71.5 -203t-209.5 -69l-126 98l-140 -98q-131 8 -204 94q-68 80 -68 217z" />
<glyph unicode="&#xe59;" horiz-adv-x="1011" d="M72 350q0 371 287 371q135 0 217 -109q13 109 133 109h74q93 0 151 29l29 -107q-54 -25 -109 -25h-114q-49 0 -66 -18q-26 -30 -30 -96l241 -453l-94 -53l-266 492q-73 128 -168 128q-111 0 -150 -138q-14 -50 -14 -98t0.5 -75t4.5 -56t13 -57t24 -50q34 -48 95 -48 q16 0 52 6l16 -98q-256 -55 -311 183q-15 65 -15 163z" />
<glyph unicode="&#xe5a;" horiz-adv-x="1065" d="M56 549.5q0 73.5 21 119t57 76.5q74 62 188 62q17 0 30.5 -2.5t19.5 -3.5t9 -3l-23 -90q-26 4 -36 4h-19q-91 0 -117 -71q-8 -22 -8 -51t12 -54.5t34 -43.5q47 -40 130 -40q118 0 218 105v229l122 23v-809h-122v444q-96 -94 -246 -94q-130 0 -204 66q-66 60 -66 133.5z M821 0v786l123 23v-809h-123z" />
<glyph unicode="&#xe5b;" horiz-adv-x="1861" d="M84 372q0 135 95 244q103 117 271 117q155 0 240 -85q74 -74 74 -185q0 -99 -65 -156q-63 -55 -167 -55q-36 0 -69 6l21 80l32 -2q67 0 92 20q46 36 46 111.5t-49 119t-136 48.5q-123 0 -194 -80q-68 -76 -68 -193q0 -112 80 -188q87 -84 221 -84q245 0 333 235 q37 99 37 224l84 41q111 -106 158 -205q12 18 29 41t35 48q29 39 74 94q65 -84 122 -181l90 107h208q58 0 96 32l30 -102q-50 -31 -102 -31l-203 -2q-75 -87 -119 -161q-63 109 -122 184q-90 -101 -138 -218q-45 125 -152 242q0 -192 -134 -322q-135 -130 -332 -130 q-196 0 -312 123q-106 112 -106 263z" />
<glyph unicode="&#x2000;" horiz-adv-x="788" />
<glyph unicode="&#x2001;" horiz-adv-x="1576" />
<glyph unicode="&#x2002;" horiz-adv-x="788" />
<glyph unicode="&#x2003;" horiz-adv-x="1576" />
<glyph unicode="&#x2004;" horiz-adv-x="525" />
<glyph unicode="&#x2005;" horiz-adv-x="394" />
<glyph unicode="&#x2006;" horiz-adv-x="262" />
<glyph unicode="&#x2007;" horiz-adv-x="262" />
<glyph unicode="&#x2008;" horiz-adv-x="197" />
<glyph unicode="&#x2009;" horiz-adv-x="315" />
<glyph unicode="&#x200a;" horiz-adv-x="87" />
<glyph unicode="&#x200b;" />
<glyph unicode="&#x2013;" horiz-adv-x="691" d="M0 368v86h692v-86h-692z" />
<glyph unicode="&#x2014;" horiz-adv-x="1646" d="M132 368v86h1379v-86h-1379z" />
<glyph unicode="&#x2018;" horiz-adv-x="383" d="M78 800q0 36 15 75.5t39 72.5q50 68 120 98l47 -63q-89 -44 -101 -131q6 2 9 2h8q54 0 77 -58q7 -17 7 -37.5t-9 -40.5q-28 -64 -98 -64q-78 0 -106 84q-8 26 -8 62z" />
<glyph unicode="&#x2019;" horiz-adv-x="383" d="M74 700q87 39 100 130q-6 -2 -9 -2h-7q-35 0 -53 20q-31 36 -31 66.5t8 50t22 33.5q32 30 67 30t56 -10.5t36 -29.5q32 -39 32 -90.5t-14.5 -91t-39.5 -72.5q-51 -68 -120 -99z" />
<glyph unicode="&#x201c;" horiz-adv-x="674" d="M78 800q0 36 15 75.5t39 72.5q50 68 120 98l47 -63q-89 -44 -101 -131q6 2 9 2h8q54 0 77 -58q7 -17 7 -37.5t-9 -40.5q-28 -64 -98 -64q-78 0 -106 84q-8 26 -8 62zM368 785.5q0 50.5 15 90t39 72.5q51 68 120 98l48 -63q-88 -43 -100 -131q6 2 10 2h6q54 0 77 -58 q7 -17 7 -37.5t-8 -40t-23 -34.5q-32 -30 -66.5 -30t-55.5 10t-36 29q-33 42 -33 92.5z" />
<glyph unicode="&#x201d;" horiz-adv-x="674" d="M78 700q87 41 100 130q-6 -2 -10 -2h-14t-25 8q-29 14 -40 41t-11 47.5t8 40t23 33.5q32 30 66.5 30t55.5 -10.5t36 -29.5q32 -39 32 -90.5t-15 -91t-40 -72.5q-48 -66 -119 -99zM368 700q88 39 101 130q-6 -2 -9 -2h-8q-53 0 -77 58q-7 18 -7 38.5t8.5 40t23.5 33.5 q31 30 66 30t55.5 -10.5t36.5 -29.5q32 -38 32 -90t-15 -91.5t-39 -72.5q-47 -65 -120 -99z" />
<glyph unicode="&#x2022;" horiz-adv-x="624" d="M55 384q0 106 75 183q74 75 183 75q108 0 181 -75q75 -76 75 -183q0 -54 -20 -102t-55 -83q-73 -75 -181 -75q-109 0 -183 75q-75 77 -75 185z" />
<glyph unicode="&#x202f;" horiz-adv-x="315" />
<glyph unicode="&#x205f;" horiz-adv-x="394" />
<glyph unicode="&#x20ac;" horiz-adv-x="874" d="M45 348v86h83q-3 54 -3 70q0 45 3 72h-83v86h98q38 162 148 262t260 100q143 0 254 -82l-65 -78q-92 64 -186 64q-225 0 -284 -266h373v-86h-384q-3 -42 -3 -73v-44q0 -13 1 -25h386v-86h-377q9 -44 25.5 -84t45 -75.5t63.5 -58.5q69 -46 169 -46t189 64l66 -82 q-127 -82 -284 -82q-174 0 -294 132q-80 91 -107 232h-94z" />
<glyph unicode="&#xe000;" horiz-adv-x="745" d="M0 0v745h745v-745h-745z" />
<glyph unicode="&#xf700;" horiz-adv-x="743" d="M6 706q162 111 354 111q50 0 86 -7.5t48 -7.5q88 0 174 95l84 -71q-55 -66 -168 -95q36 -41 38 -125v-45v-333q0 -105 -22 -143.5t-47 -56.5q-56 -40 -155 -40q-46 0 -82 12l-103 381q-13 51 -30 71t-29 23l86 65q52 -30 78 -118l92 -332q58 0 76 43q14 33 14 123v291 q0 85 -20 114q-39 54 -152.5 54t-265.5 -91z" />
<glyph unicode="&#xf701;" d="M-850 948l43 95h461v-95h-504z" />
<glyph unicode="&#xf702;" d="M-852 946l43 95h348v100l113 21v-216h-504z" />
<glyph unicode="&#xf703;" d="M-864 948l43 95h245q-6 8 -7 30.5t8.5 44t26.5 38.5q34 34 85 34q77 0 109 -72q10 -22 10 -46q0 -50 -26 -77q-44 -47 -93 -47h-401zM-508 1072q0 -18 13 -31t32 -13q18 0 30.5 13t12.5 31t-12 30t-31 12q-18 0 -31.5 -12t-13.5 -30z" />
<glyph unicode="&#xf704;" d="M-880 948l42 95h196v100l115 21v-121h66v100l113 21v-216h-532z" />
<glyph unicode="&#xf705;" d="M-525 946v239l108 20v-259h-108z" />
<glyph unicode="&#xf706;" d="M-760 1149l72 65q45 -11 68 -58q10 -18 10 -54t-23 -56l35 -2q147 0 223 80l74 -84q-107 -94 -309 -94q-80 0 -117 4l-31 90q43 4 43 48q0 28 -18.5 43t-26.5 18z" />
<glyph unicode="&#xf707;" d="M-825 1092q0 53 27 81q45 47 94 47q50 0 76 -41q7 -12 14 -25q52 68 114 68q66 0 91 -62q7 -17 7 -38q0 -50 -36 -82q-8 -5 -13 -7q45 0 81 41q10 12 16 24l62 -56q-33 -50 -73 -66q-60 -24 -164 -24l-25 76q16 0 33 17q30 30 30 51q0 38 -31 38q-48 0 -92 -76 q-38 72 -86 72q-24 0 -32 -23q-2 -5 -2 -11q0 -52 79 -74l-16 -82q-63 0 -108 45q-46 46 -46 107z" />
<glyph unicode="&#xf708;" d="M-645 1059v82h117v86l112 21v-107h121v-82h-121v-111h-112v111h-117z" />
<glyph unicode="&#xf709;" d="M-522 1048.5q0 41.5 9.5 70.5t28.5 54q44 56 122 80l38 -67q-80 -31 -80 -105q0 -47 27 -105l-123 -22q-22 53 -22 94.5z" />
<glyph unicode="&#xf70a;" d="M-232 946v239l108 20v-259h-108z" />
<glyph unicode="&#xf70b;" d="M-561 1148l79 68q80 -30 80 -105q0 -50 -20 -63h37q147 0 232 68l75 -78q-60 -54 -123 -68q-99 -22 -156 -22h-75l-68 2q-16 0 -30 2l-27 86q35 7 40.5 21.5t5.5 26.5q0 52 -50 62z" />
<glyph unicode="&#xf70c;" d="M-670 1108q0 90 85 127q25 11 49.5 11t40.5 -6t27 -16q18 -15 38 -50q60 74 128 74q47 0 71 -23q40 -37 40 -82q0 -73 -55 -101q51 0 92 47q12 13 18 25l70 -61q-41 -57 -84 -74q-70 -27 -184 -27l-29 84q20 0 38 20q35 36 35 58q0 42 -34 42q-24 0 -53 -22t-53 -64 q-45 81 -101 81q-39 0 -39 -39q0 -49 64 -72q16 -6 28 -10l-18 -90q-69 0 -122 50q-52 48 -52 118z" />
<glyph unicode="&#xf70d;" d="M-368 1056v82h129v86l115 21v-107h130v-82h-130v-108h-115v108h-129z" />
<glyph unicode="&#xf70e;" d="M-268 1042.5q0 37.5 10 66.5q32 94 150 133l40 -67q-80 -31 -80 -105q0 -50 26 -104l-123 -22q-23 61 -23 98.5z" />
<glyph unicode="&#xf70f;" horiz-adv-x="1235" d="M62 676q191 139 386 139q103 0 147.5 -26t65.5 -52.5t32 -51.5t15 -43t5 -38q2 -40 2 -74v-300q0 -76 23 -104q40 -50 116 -50q112 0 130 90q5 30 5 64v558l123 21v-604q0 -107 -87 -165q-75 -50 -189 -50q-176 0 -227 121q-17 40 -17 94v331q0 91 -16 116.5t-33 35.5 q-35 22 -87 22t-81.5 -5t-56.5 -13q-33 -10 -97 -38l9 -19q24 -47 24 -105v-323q0 -67 16 -87q29 -38 105 -38l16 -86q-18 -6 -57 -6t-76.5 12.5t-65.5 36.5q-61 52 -61 141v314q0 80 -17 108z" />
<glyph unicode="&#xf710;" d="M-627 1064l95 58q35 -78 112 -78h418l-37 -95h-405q-87 0 -144 57q-25 25 -39 58z" />
<glyph unicode="&#xf711;" d="M-660 1056q0 55 40 97q40 41 98 41q56 0 97 -41t41 -97q0 -59 -41 -98q-41 -40 -97 -40q-91 0 -127 84q-11 26 -11 54zM-580 1056q0 -39 36 -54q10 -5 22 -5q39 0 55 36q5 11 5 23q0 39 -37 54q-11 5 -23 5q-39 0 -54 -36q-4 -11 -4 -23z" />
<glyph unicode="&#xf712;" d="M-828 1083q0 49 13 81.5t37 55.5q50 49 128 49h230q45 0 74 19l43 -66q-36 -30 -88 -30h-263q-25 0 -45 -16q-41 -30 -41 -80q0 -36 17 -54t32 -22l99 90l88 -80q32 -32 52 -18q23 14 4 51l-8 17l76 30q13 -29 22 -74q5 -69 -47 -95q-75 -41 -155 34l-32 31l-80 -76 q-76 0 -120 58q-36 46 -36 95z" />
<glyph unicode="&#xf713;" d="M-453 1276v186l108 20v-206h-108z" />
<glyph unicode="&#xf714;" d="M-574 1470l65 66q44 -11 69 -62q9 -20 9 -58t-23 -55h35q135 0 217 68l74 -68q-59 -51 -115 -65q-102 -25 -184.5 -23.5t-110.5 7.5l-30 81q36 8 36 50.5t-42 58.5z" />
<glyph unicode="&#xf715;" d="M-677 1410.5q0 27.5 9.5 47.5t25.5 35q32 31 84.5 31t85.5 -54q49 58 104 58q61 0 82 -53q6 -15 6 -28t-1 -24t-6 -22q-13 -29 -35 -40q63 9 90 39q12 12 26 34l58 -50q-37 -55 -82 -72q-70 -27 -166 -27l-21 69q33 8 51 41q6 11 6 21q0 33 -24 33q-40 0 -88 -65 q-36 63 -86 63q-18 0 -27.5 -10.5t-9.5 -24.5t7.5 -26t19.5 -20q27 -18 49 -18l-15 -71q-95 0 -132 81q-11 25 -11 52.5z" />
<glyph unicode="&#xf716;" d="M-592 1388v82h129v86l115 20v-106h131v-82h-131v-110h-115v110h-129z" />
<glyph unicode="&#xf717;" d="M-469 1219q-53 160 59 248q32 25 80 41l25 -56q-86 -33 -65 -143q0 -25 22 -69z" />
<glyph unicode="&#xf718;" d="M-304 -425l74 87q59 -12 90 -64q17 -28 17 -68v-196h-123v175q0 48 -58 66z" />
<glyph unicode="&#xf719;" d="M-592 -441l66 93q66 0 96 -60q10 -20 10 -46v-35q0 -76 38 -99q18 -10 45 -10t45 6.5t29 21.5q21 30 21 98v107l118 19v-126q0 -206 -222 -206q-142 0 -180 100q-12 32 -12 70v9q0 50 -54 58z" />
<glyph unicode="&#xf71a;" d="M-284 -431.5q0 18.5 7 35t19 29.5q25 27 52.5 27t44 -7t29.5 -20q26 -28 26 -55.5t-7 -43t-19 -26.5q-28 -26 -55.5 -26t-43 7t-27.5 18.5t-19 27t-7 34z" />
<glyph unicode="&#xf71d;" horiz-adv-x="1067" d="M94 780l121 35q33 -66 33 -125v-477q0 -92 48 -123q15 -10 41.5 -10t52.5 11.5t45 33.5q40 46 40 127v295l123 24v-329q0 -109 60 -148q22 -14 55.5 -14t54 10t32.5 32q24 41 24 136l-1 284q0 87 -21 115q-40 53 -138 53q-46 0 -111 -18l-35 88q76 31 190 31 q167 0 265 101l84 -80q-58 -60 -173 -94q57 -42 61 -132q1 -24 1 -45v-311q0 -264 -231 -264q-115 0 -167 76q-13 20 -22 36q-67 -114 -225 -114q-128 0 -165 128q-11 40 -11 86v416q0 111 -31 166z" />
<glyph unicode="&#xf881;" horiz-adv-x="1428" d="M72 94q106 0 114 78q2 24 2 54l-2 235q-3 84 -28 121q-9 12 -19 24l-55 70q185 139 397 139t271 -141q18 -48 18 -158v-808l-123 -24v826q0 137 -59 174q-42 26 -110 26q-115 0 -236 -56q67 -74 67 -150v-334q0 -170 -211 -170zM838 708q115 105 262 105q94 0 150 -60 q53 -57 53 -149v-896l-123 -24v854q0 172 -105 172t-185 -67z" />
<glyph unicode="&#xf882;" horiz-adv-x="1414" d="M68 94q106 0 114 78q2 24 2 54l-2 235q-3 84 -28 121q-9 12 -19 24l-55 70q185 139 397 139t271 -141q18 -48 18 -158v-809l-123 -23v826q0 137 -59 174q-42 26 -110 26q-115 0 -236 -56q67 -74 67 -150v-334q0 -170 -211 -170zM826 708q115 105 262 105q94 0 150 -60 q52 -56 52 -149v-896l-122 -24v854q0 136 -65 164q-17 8 -42 8q-99 0 -184 -67z" />
</font>
</defs>
</svg>
